<svg width="170" height="145" viewBox="0 0 170 145" fill="none" xmlns="http://www.w3.org/2000/svg">
<rect x="0.5" y="0.5" width="169" height="144" rx="3.5" stroke="black" stroke-opacity="0.3"/>
<path d="M38.768 115.112C38.032 115.112 37.3707 114.984 36.784 114.728C36.208 114.461 35.7547 114.099 35.424 113.64C35.0933 113.171 34.9227 112.632 34.912 112.024H36.464C36.5173 112.547 36.7307 112.989 37.104 113.352C37.488 113.704 38.0427 113.88 38.768 113.88C39.4613 113.88 40.0053 113.709 40.4 113.368C40.8053 113.016 41.008 112.568 41.008 112.024C41.008 111.597 40.8907 111.251 40.656 110.984C40.4213 110.717 40.128 110.515 39.776 110.376C39.424 110.237 38.9493 110.088 38.352 109.928C37.616 109.736 37.024 109.544 36.576 109.352C36.1387 109.16 35.76 108.861 35.44 108.456C35.1307 108.04 34.976 107.485 34.976 106.792C34.976 106.184 35.1307 105.645 35.44 105.176C35.7493 104.707 36.1813 104.344 36.736 104.088C37.3013 103.832 37.9467 103.704 38.672 103.704C39.7173 103.704 40.5707 103.965 41.232 104.488C41.904 105.011 42.2827 105.704 42.368 106.568H40.768C40.7147 106.141 40.4907 105.768 40.096 105.448C39.7013 105.117 39.1787 104.952 38.528 104.952C37.92 104.952 37.424 105.112 37.04 105.432C36.656 105.741 36.464 106.179 36.464 106.744C36.464 107.149 36.576 107.48 36.8 107.736C37.0347 107.992 37.3173 108.189 37.648 108.328C37.9893 108.456 38.464 108.605 39.072 108.776C39.808 108.979 40.4 109.181 40.848 109.384C41.296 109.576 41.68 109.88 42 110.296C42.32 110.701 42.48 111.256 42.48 111.96C42.48 112.504 42.336 113.016 42.048 113.496C41.76 113.976 41.3333 114.365 40.768 114.664C40.2027 114.963 39.536 115.112 38.768 115.112ZM55.1666 106.072C55.8493 106.072 56.4573 106.216 56.9906 106.504C57.524 106.781 57.9453 107.203 58.2546 107.768C58.564 108.333 58.7186 109.021 58.7186 109.832V115H57.2786V110.04C57.2786 109.165 57.06 108.499 56.6226 108.04C56.196 107.571 55.6146 107.336 54.8786 107.336C54.1213 107.336 53.5186 107.581 53.0706 108.072C52.6226 108.552 52.3986 109.251 52.3986 110.168V115H50.9586V110.04C50.9586 109.165 50.74 108.499 50.3026 108.04C49.876 107.571 49.2946 107.336 48.5586 107.336C47.8013 107.336 47.1986 107.581 46.7506 108.072C46.3026 108.552 46.0786 109.251 46.0786 110.168V115H44.6226V106.232H46.0786V107.496C46.3666 107.037 46.7506 106.685 47.2306 106.44C47.7213 106.195 48.26 106.072 48.8466 106.072C49.5826 106.072 50.2333 106.237 50.7986 106.568C51.364 106.899 51.7853 107.384 52.0626 108.024C52.308 107.405 52.7133 106.925 53.2786 106.584C53.844 106.243 54.4733 106.072 55.1666 106.072ZM60.563 110.584C60.563 109.688 60.7443 108.904 61.107 108.232C61.4697 107.549 61.9657 107.021 62.595 106.648C63.235 106.275 63.9443 106.088 64.723 106.088C65.491 106.088 66.1577 106.253 66.723 106.584C67.2883 106.915 67.7097 107.331 67.987 107.832V106.232H69.459V115H67.987V113.368C67.699 113.88 67.267 114.307 66.691 114.648C66.1257 114.979 65.4643 115.144 64.707 115.144C63.9283 115.144 63.2243 114.952 62.595 114.568C61.9657 114.184 61.4697 113.645 61.107 112.952C60.7443 112.259 60.563 111.469 60.563 110.584ZM67.987 110.6C67.987 109.939 67.8537 109.363 67.587 108.872C67.3203 108.381 66.9577 108.008 66.499 107.752C66.051 107.485 65.555 107.352 65.011 107.352C64.467 107.352 63.971 107.48 63.523 107.736C63.075 107.992 62.7177 108.365 62.451 108.856C62.1843 109.347 62.051 109.923 62.051 110.584C62.051 111.256 62.1843 111.843 62.451 112.344C62.7177 112.835 63.075 113.213 63.523 113.48C63.971 113.736 64.467 113.864 65.011 113.864C65.555 113.864 66.051 113.736 66.499 113.48C66.9577 113.213 67.3203 112.835 67.587 112.344C67.8537 111.843 67.987 111.261 67.987 110.6ZM73.3755 107.656C73.6315 107.155 73.9942 106.765 74.4635 106.488C74.9435 106.211 75.5248 106.072 76.2075 106.072V107.576H75.8235C74.1915 107.576 73.3755 108.461 73.3755 110.232V115H71.9195V106.232H73.3755V107.656ZM79.6643 107.432V112.6C79.6643 113.027 79.7549 113.331 79.9363 113.512C80.1176 113.683 80.4323 113.768 80.8802 113.768H81.9523V115H80.6403C79.8296 115 79.2216 114.813 78.8163 114.44C78.4109 114.067 78.2083 113.453 78.2083 112.6V107.432H77.0723V106.232H78.2083V104.024H79.6643V106.232H81.9523V107.432H79.6643ZM97.7324 103.848L94.5004 115H92.8684L90.2764 106.024L87.5884 115L85.9724 115.016L82.8524 103.848H84.4044L86.8364 113.304L89.5244 103.848H91.1564L93.7164 113.272L96.1644 103.848H97.7324ZM98.7818 110.584C98.7818 109.688 98.9631 108.904 99.3258 108.232C99.6884 107.549 100.184 107.021 100.814 106.648C101.454 106.275 102.163 106.088 102.942 106.088C103.71 106.088 104.376 106.253 104.942 106.584C105.507 106.915 105.928 107.331 106.206 107.832V106.232H107.678V115H106.206V113.368C105.918 113.88 105.486 114.307 104.91 114.648C104.344 114.979 103.683 115.144 102.926 115.144C102.147 115.144 101.443 114.952 100.814 114.568C100.184 114.184 99.6884 113.645 99.3258 112.952C98.9631 112.259 98.7818 111.469 98.7818 110.584ZM106.206 110.6C106.206 109.939 106.072 109.363 105.806 108.872C105.539 108.381 105.176 108.008 104.718 107.752C104.27 107.485 103.774 107.352 103.23 107.352C102.686 107.352 102.19 107.48 101.742 107.736C101.294 107.992 100.936 108.365 100.67 108.856C100.403 109.347 100.27 109.923 100.27 110.584C100.27 111.256 100.403 111.843 100.67 112.344C100.936 112.835 101.294 113.213 101.742 113.48C102.19 113.736 102.686 113.864 103.23 113.864C103.774 113.864 104.27 113.736 104.718 113.48C105.176 113.213 105.539 112.835 105.806 112.344C106.072 111.843 106.206 111.261 106.206 110.6ZM111.914 107.432V112.6C111.914 113.027 112.005 113.331 112.186 113.512C112.368 113.683 112.682 113.768 113.13 113.768H114.202V115H112.89C112.08 115 111.472 114.813 111.066 114.44C110.661 114.067 110.458 113.453 110.458 112.6V107.432H109.322V106.232H110.458V104.024H111.914V106.232H114.202V107.432H111.914ZM115.422 110.6C115.422 109.693 115.604 108.904 115.966 108.232C116.329 107.549 116.83 107.021 117.47 106.648C118.121 106.275 118.862 106.088 119.694 106.088C120.772 106.088 121.657 106.349 122.35 106.872C123.054 107.395 123.518 108.12 123.742 109.048H122.174C122.025 108.515 121.732 108.093 121.294 107.784C120.868 107.475 120.334 107.32 119.694 107.32C118.862 107.32 118.19 107.608 117.678 108.184C117.166 108.749 116.91 109.555 116.91 110.6C116.91 111.656 117.166 112.472 117.678 113.048C118.19 113.624 118.862 113.912 119.694 113.912C120.334 113.912 120.868 113.763 121.294 113.464C121.721 113.165 122.014 112.739 122.174 112.184H123.742C123.508 113.08 123.038 113.8 122.334 114.344C121.63 114.877 120.75 115.144 119.694 115.144C118.862 115.144 118.121 114.957 117.47 114.584C116.83 114.211 116.329 113.683 115.966 113C115.604 112.317 115.422 111.517 115.422 110.6ZM130.037 106.072C130.698 106.072 131.296 106.216 131.829 106.504C132.362 106.781 132.778 107.203 133.077 107.768C133.386 108.333 133.541 109.021 133.541 109.832V115H132.101V110.04C132.101 109.165 131.882 108.499 131.445 108.04C131.008 107.571 130.41 107.336 129.653 107.336C128.885 107.336 128.272 107.576 127.813 108.056C127.365 108.536 127.141 109.235 127.141 110.152V115H125.685V103.16H127.141V107.48C127.429 107.032 127.824 106.685 128.325 106.44C128.837 106.195 129.408 106.072 130.037 106.072Z" fill="black"/>
<g clip-path="url(#clip0_157_1852)">
<path d="M92 39H78C74.134 39 71 42.134 71 46V60C71 63.866 74.134 67 78 67H92C95.866 67 99 63.866 99 60V46C99 42.134 95.866 39 92 39Z" stroke="black" stroke-width="2" stroke-linecap="round" stroke-linejoin="round"/>
<path d="M78 67V74H92V67" stroke="black" stroke-width="2" stroke-linecap="round" stroke-linejoin="round"/>
<path d="M78 39V32H92V39" stroke="black" stroke-width="2" stroke-linecap="round" stroke-linejoin="round"/>
<line x1="81" y1="48" x2="81" y2="59" stroke="black" stroke-width="2" stroke-linecap="round"/>
<line x1="85" y1="53" x2="85" y2="59" stroke="black" stroke-width="2" stroke-linecap="round"/>
<line x1="89" y1="51" x2="89" y2="59" stroke="black" stroke-width="2" stroke-linecap="round"/>
</g>
<defs>
<clipPath id="clip0_157_1852">
<rect width="56" height="56" fill="white" transform="translate(57 25)"/>
</clipPath>
</defs>
</svg>
