<svg width="170" height="145" viewBox="0 0 170 145" fill="none" xmlns="http://www.w3.org/2000/svg">
<rect x="0.5" y="0.5" width="169" height="144" rx="3.5" stroke="black" stroke-opacity="0.3"/>
<path d="M51.688 109.416C51.688 108.328 51.9333 107.352 52.424 106.488C52.9147 105.613 53.5813 104.931 54.424 104.44C55.2773 103.949 56.2213 103.704 57.256 103.704C58.472 103.704 59.5333 103.997 60.44 104.584C61.3467 105.171 62.008 106.003 62.424 107.08H60.68C60.3707 106.408 59.9227 105.891 59.336 105.528C58.76 105.165 58.0667 104.984 57.256 104.984C56.4773 104.984 55.7787 105.165 55.16 105.528C54.5413 105.891 54.056 106.408 53.704 107.08C53.352 107.741 53.176 108.52 53.176 109.416C53.176 110.301 53.352 111.08 53.704 111.752C54.056 112.413 54.5413 112.925 55.16 113.288C55.7787 113.651 56.4773 113.832 57.256 113.832C58.0667 113.832 58.76 113.656 59.336 113.304C59.9227 112.941 60.3707 112.424 60.68 111.752H62.424C62.008 112.819 61.3467 113.645 60.44 114.232C59.5333 114.808 58.472 115.096 57.256 115.096C56.2213 115.096 55.2773 114.856 54.424 114.376C53.5813 113.885 52.9147 113.208 52.424 112.344C51.9333 111.48 51.688 110.504 51.688 109.416ZM64.0474 110.584C64.0474 109.688 64.2287 108.904 64.5914 108.232C64.954 107.549 65.45 107.021 66.0794 106.648C66.7194 106.275 67.4287 106.088 68.2074 106.088C68.9754 106.088 69.642 106.253 70.2074 106.584C70.7727 106.915 71.194 107.331 71.4714 107.832V106.232H72.9434V115H71.4714V113.368C71.1834 113.88 70.7514 114.307 70.1754 114.648C69.61 114.979 68.9487 115.144 68.1914 115.144C67.4127 115.144 66.7087 114.952 66.0794 114.568C65.45 114.184 64.954 113.645 64.5914 112.952C64.2287 112.259 64.0474 111.469 64.0474 110.584ZM71.4714 110.6C71.4714 109.939 71.338 109.363 71.0714 108.872C70.8047 108.381 70.442 108.008 69.9834 107.752C69.5354 107.485 69.0394 107.352 68.4954 107.352C67.9514 107.352 67.4554 107.48 67.0074 107.736C66.5594 107.992 66.202 108.365 65.9354 108.856C65.6687 109.347 65.5354 109.923 65.5354 110.584C65.5354 111.256 65.6687 111.843 65.9354 112.344C66.202 112.835 66.5594 113.213 67.0074 113.48C67.4554 113.736 67.9514 113.864 68.4954 113.864C69.0394 113.864 69.5354 113.736 69.9834 113.48C70.442 113.213 70.8047 112.835 71.0714 112.344C71.338 111.843 71.4714 111.261 71.4714 110.6ZM85.9479 106.072C86.6305 106.072 87.2385 106.216 87.7719 106.504C88.3052 106.781 88.7265 107.203 89.0359 107.768C89.3452 108.333 89.4999 109.021 89.4999 109.832V115H88.0599V110.04C88.0599 109.165 87.8412 108.499 87.4039 108.04C86.9772 107.571 86.3959 107.336 85.6599 107.336C84.9025 107.336 84.2999 107.581 83.8519 108.072C83.4039 108.552 83.1799 109.251 83.1799 110.168V115H81.7399V110.04C81.7399 109.165 81.5212 108.499 81.0839 108.04C80.6572 107.571 80.0759 107.336 79.3399 107.336C78.5825 107.336 77.9799 107.581 77.5319 108.072C77.0839 108.552 76.8599 109.251 76.8599 110.168V115H75.4039V106.232H76.8599V107.496C77.1479 107.037 77.5319 106.685 78.0119 106.44C78.5025 106.195 79.0412 106.072 79.6279 106.072C80.3639 106.072 81.0145 106.237 81.5799 106.568C82.1452 106.899 82.5665 107.384 82.8439 108.024C83.0892 107.405 83.4945 106.925 84.0599 106.584C84.6252 106.243 85.2545 106.072 85.9479 106.072ZM99.8883 110.28C99.8883 110.557 99.8723 110.851 99.8403 111.16H92.8323C92.8856 112.024 93.1789 112.701 93.7123 113.192C94.2563 113.672 94.9123 113.912 95.6803 113.912C96.3096 113.912 96.8323 113.768 97.2483 113.48C97.6749 113.181 97.9736 112.787 98.1443 112.296H99.7123C99.4776 113.139 99.0083 113.827 98.3043 114.36C97.6003 114.883 96.7256 115.144 95.6803 115.144C94.8483 115.144 94.1016 114.957 93.4403 114.584C92.7896 114.211 92.2776 113.683 91.9043 113C91.5309 112.307 91.3443 111.507 91.3443 110.6C91.3443 109.693 91.5256 108.899 91.8883 108.216C92.2509 107.533 92.7576 107.011 93.4083 106.648C94.0696 106.275 94.8269 106.088 95.6803 106.088C96.5123 106.088 97.2483 106.269 97.8883 106.632C98.5283 106.995 99.0189 107.496 99.3603 108.136C99.7123 108.765 99.8883 109.48 99.8883 110.28ZM98.3843 109.976C98.3843 109.421 98.2616 108.947 98.0163 108.552C97.7709 108.147 97.4349 107.843 97.0083 107.64C96.5923 107.427 96.1283 107.32 95.6163 107.32C94.8803 107.32 94.2509 107.555 93.7283 108.024C93.2163 108.493 92.9229 109.144 92.8483 109.976H98.3843ZM103.266 107.656C103.522 107.155 103.885 106.765 104.354 106.488C104.834 106.211 105.415 106.072 106.098 106.072V107.576H105.714C104.082 107.576 103.266 108.461 103.266 110.232V115H101.81V106.232H103.266V107.656ZM107.235 110.584C107.235 109.688 107.416 108.904 107.779 108.232C108.142 107.549 108.638 107.021 109.267 106.648C109.907 106.275 110.616 106.088 111.395 106.088C112.163 106.088 112.83 106.253 113.395 106.584C113.96 106.915 114.382 107.331 114.659 107.832V106.232H116.131V115H114.659V113.368C114.371 113.88 113.939 114.307 113.363 114.648C112.798 114.979 112.136 115.144 111.379 115.144C110.6 115.144 109.896 114.952 109.267 114.568C108.638 114.184 108.142 113.645 107.779 112.952C107.416 112.259 107.235 111.469 107.235 110.584ZM114.659 110.6C114.659 109.939 114.526 109.363 114.259 108.872C113.992 108.381 113.63 108.008 113.171 107.752C112.723 107.485 112.227 107.352 111.683 107.352C111.139 107.352 110.643 107.48 110.195 107.736C109.747 107.992 109.39 108.365 109.123 108.856C108.856 109.347 108.723 109.923 108.723 110.584C108.723 111.256 108.856 111.843 109.123 112.344C109.39 112.835 109.747 113.213 110.195 113.48C110.643 113.736 111.139 113.864 111.683 113.864C112.227 113.864 112.723 113.736 113.171 113.48C113.63 113.213 113.992 112.835 114.259 112.344C114.526 111.843 114.659 111.261 114.659 110.6Z" fill="black"/>
<g clip-path="url(#clip0_157_1853)">
<path d="M68.6667 41.3334H71C72.2377 41.3334 73.4247 40.8417 74.2998 39.9665C75.175 39.0914 75.6667 37.9044 75.6667 36.6667C75.6667 36.0479 75.9125 35.4544 76.3501 35.0168C76.7877 34.5792 77.3812 34.3334 78 34.3334H92C92.6188 34.3334 93.2123 34.5792 93.6499 35.0168C94.0875 35.4544 94.3333 36.0479 94.3333 36.6667C94.3333 37.9044 94.825 39.0914 95.7002 39.9665C96.5753 40.8417 97.7623 41.3334 99 41.3334H101.333C102.571 41.3334 103.758 41.825 104.633 42.7002C105.508 43.5754 106 44.7624 106 46V67C106 68.2377 105.508 69.4247 104.633 70.2999C103.758 71.175 102.571 71.6667 101.333 71.6667H68.6667C67.429 71.6667 66.242 71.175 65.3668 70.2999C64.4917 69.4247 64 68.2377 64 67V46C64 44.7624 64.4917 43.5754 65.3668 42.7002C66.242 41.825 67.429 41.3334 68.6667 41.3334" stroke="black" stroke-width="2" stroke-linecap="round" stroke-linejoin="round"/>
<path d="M85 62.3334C88.866 62.3334 92 59.1994 92 55.3334C92 51.4674 88.866 48.3334 85 48.3334C81.134 48.3334 78 51.4674 78 55.3334C78 59.1994 81.134 62.3334 85 62.3334Z" stroke="black" stroke-width="2" stroke-linecap="round" stroke-linejoin="round"/>
</g>
<defs>
<clipPath id="clip0_157_1853">
<rect width="56" height="56" fill="white" transform="translate(57 25)"/>
</clipPath>
</defs>
</svg>
