<svg xmlns="http://www.w3.org/2000/svg" xmlns:xlink="http://www.w3.org/1999/xlink" width="500" zoomAndPan="magnify" viewBox="0 0 375 374.999991" height="500" preserveAspectRatio="xMidYMid meet" version="1.0"><defs><clipPath id="b639ff17c5"><path d="M 22 0 L 354.65625 0 L 354.65625 371 L 22 371 Z M 22 0 " clip-rule="nonzero"/></clipPath></defs><g clip-path="url(#b639ff17c5)"><path fill="#25225b" d="M 176.570312 -0.0078125 C 176.570312 -0.0078125 174.765625 12.894531 170.121094 20.382812 C 170.121094 20.382812 162.382812 23.21875 158.253906 27.867188 C 158.253906 27.867188 151.292969 24.253906 146.648438 13.929688 C 146.648438 13.929688 139.167969 24.765625 139.167969 44.125 C 139.167969 44.125 122.660156 43.351562 110.535156 51.867188 C 110.535156 51.867188 99.960938 59.351562 93.507812 73.03125 C 93.507812 73.03125 83.191406 94.195312 75.195312 101.9375 C 75.195312 101.9375 88.867188 96.777344 100.992188 88.519531 C 113.113281 80.261719 117.757812 84.644531 116.726562 86.710938 C 116.726562 86.710938 99.398438 96.257812 99.65625 106.066406 C 99.65625 106.066406 74.277344 118.113281 54.878906 130.929688 C 54.878906 130.929688 51.4375 133.339844 44.390625 130.726562 C 44.390625 130.726562 36.535156 127.488281 30.914062 142.972656 C 30.914062 142.972656 27.019531 155.707031 23.691406 162.816406 C 23.691406 162.816406 20.253906 168.210938 26.445312 173.484375 C 26.445312 173.484375 39.285156 185.761719 45.476562 183.351562 C 45.476562 183.351562 50.289062 189.542969 56.019531 186.101562 C 56.019531 186.101562 63.585938 180.828125 72.300781 177.730469 C 72.300781 177.730469 67.714844 184.269531 54.761719 190.921875 C 54.761719 190.921875 51.4375 192.296875 53.15625 195.964844 C 53.15625 195.964844 44.445312 199.40625 51.4375 202.964844 C 51.4375 202.964844 60.148438 217.53125 75.167969 211.453125 C 75.167969 211.453125 79.066406 217.820312 91.707031 209.558594 C 91.707031 209.558594 105.375 198.976562 111.824219 192.78125 C 111.824219 192.78125 114.921875 190.976562 112.859375 183.75 C 112.859375 183.75 128.078125 172.910156 154.128906 177.039062 C 154.128906 177.039062 158 227.625 111.050781 259.628906 C 111.050781 259.628906 78.808594 283.117188 75.96875 309.183594 C 75.96875 309.183594 99.703125 345.316406 162.125 357.1875 C 162.125 357.1875 175.46875 358.222656 195.238281 368.289062 C 195.238281 368.289062 205.203125 374.996094 213.714844 365.449219 C 213.714844 365.449219 250.601562 332.15625 261.179688 321.316406 C 261.179688 321.316406 264.53125 317.1875 273.042969 320.796875 C 273.042969 320.796875 303.484375 332.410156 319.992188 319.507812 C 319.992188 319.507812 308.382812 317.1875 293.9375 302.988281 C 293.9375 302.988281 323.34375 320.023438 354.554688 312.796875 C 354.554688 312.796875 325.925781 304.796875 317.949219 274.046875 C 317.949219 274.046875 315.351562 260.144531 311.738281 253.695312 C 311.738281 253.695312 352.492188 236.886719 343.207031 185.285156 C 343.207031 185.285156 333.921875 198.378906 325.667969 204.914062 C 325.667969 204.914062 341.144531 179.792969 327.386719 156.738281 C 327.386719 156.738281 319.734375 145.554688 307.351562 136.003906 C 307.351562 136.003906 301.9375 130.84375 296.519531 122.328125 C 296.519531 122.328125 317.671875 124.648438 335.210938 119.746094 C 335.210938 119.746094 319.992188 117.164062 282.851562 74.0625 C 282.851562 74.0625 271.902344 59.925781 252.152344 50.578125 C 252.152344 50.578125 264.277344 46.707031 272.273438 32.511719 C 272.273438 32.511719 243.898438 38.964844 216.042969 23.738281 C 216.042969 23.738281 207.269531 18.058594 189.988281 18.574219 C 189.984375 18.574219 187.921875 9.023438 176.570312 -0.0078125 Z M 176.570312 -0.0078125 " fill-opacity="1" fill-rule="nonzero"/></g><path fill="#c51c23" d="M 163.789062 36.582031 C 163.789062 36.582031 151.808594 38.445312 149.746094 54.191406 C 149.746094 54.191406 115.953125 45.15625 101.769531 76.902344 C 101.769531 76.902344 110.019531 69.675781 127.820312 76.902344 C 127.820312 76.902344 131.949219 72.773438 135.816406 71.484375 C 135.816406 71.484375 131.738281 67.945312 119.050781 68.382812 C 119.050781 68.382812 126.53125 58.0625 145.621094 66.320312 C 145.621094 66.320312 149.804688 68.070312 159.664062 66.234375 C 159.664062 66.234375 158.859375 60.210938 155.765625 54.878906 C 155.761719 54.878906 155.707031 43.980469 163.789062 36.582031 Z M 163.789062 36.582031 " fill-opacity="1" fill-rule="nonzero"/><path fill="#ffffff" d="M 139.425781 105.808594 C 139.425781 105.808594 129.023438 109.855469 123.863281 115.53125 C 123.863281 115.53125 127.992188 121.46875 132.804688 118.632812 C 132.804688 118.628906 139.4375 114.15625 139.425781 105.808594 Z M 139.425781 105.808594 " fill-opacity="1" fill-rule="nonzero"/><path fill="#ed1e26" d="M 240.800781 270.988281 C 240.800781 270.988281 249.316406 226.597656 242.089844 176.527344 C 242.089844 176.527344 254.644531 181.785156 264.792969 215.929688 C 264.792969 215.929688 261.046875 95.515625 196.472656 72.273438 C 196.464844 72.273438 196.460938 72.273438 196.460938 72.273438 C 196.460938 72.273438 192.046875 80 184.566406 84.386719 C 184.566406 84.386719 188.433594 75.097656 189.722656 66.835938 C 189.722656 66.835938 190.871094 63.855469 190.03125 59.265625 C 189.898438 58.546875 189.71875 57.792969 189.480469 57.003906 C 187.890625 51.785156 186.734375 46.441406 185.832031 41.058594 C 184.820312 35.015625 182.878906 25.792969 179.152344 12.121094 C 179.152344 12.121094 173.707031 30.964844 163.789062 52.644531 C 163.789062 52.644531 160.921875 57.632812 163.214844 60.15625 C 163.214844 60.15625 170.667969 71.167969 167.917969 82.984375 C 167.917969 82.984375 156.683594 71.738281 147.511719 75.644531 C 147.511719 75.644531 122.0625 88.605469 110.882812 104.089844 C 110.882812 104.089844 110.710938 101.164062 113.457031 96.867188 C 113.289062 96.957031 107.792969 100.058594 108.132812 106.414062 C 108.132812 106.414062 108.132812 108.304688 110.023438 109.339844 C 110.023438 109.339844 107.5 110.6875 107.558594 111.71875 C 107.558594 111.71875 83.3125 122.488281 74.253906 132.699219 C 74.253906 132.699219 74.558594 128.484375 83.539062 120.957031 C 83.308594 121.0625 68.480469 128.257812 56.027344 138.332031 C 56.027344 138.332031 50.179688 137.125 46.28125 138.332031 C 46.28125 138.332031 43.417969 139.191406 41.351562 145.042969 C 41.351562 145.042969 36.648438 154.21875 34.472656 162.25 C 34.472656 162.25 32.867188 166.605469 35.960938 168.210938 C 35.960938 168.210938 38.597656 170.507812 39.742188 172.226562 C 39.746094 172.226562 39.75 172.222656 39.75 172.222656 C 40.152344 171.941406 54.421875 162.050781 78.609375 164.082031 C 78.609375 164.082031 81.585938 164.199219 84.453125 167.292969 C 84.453125 167.292969 85.046875 168.039062 85.875 169.199219 C 87.734375 171.8125 90.757812 176.515625 90.757812 179.453125 C 90.757812 179.453125 90.183594 185.417969 80.324219 191.039062 C 80.324219 191.039062 68.746094 199.988281 64.847656 197.804688 C 64.847656 197.804688 62.671875 198.035156 61.066406 200.101562 C 61.066406 200.101562 62.210938 208.359375 76.199219 203.085938 C 76.199219 203.085938 79.636719 201.59375 83.417969 197.125 C 83.371094 197.320312 81.78125 203.644531 79.523438 204.847656 C 79.523438 204.847656 77.976562 205.667969 79.125 207.101562 C 79.125 207.101562 80.382812 209.28125 83.25 205.953125 C 83.25 205.953125 94.199219 197.4375 99.011719 191.585938 C 99.011719 191.585938 104.859375 186.511719 100.734375 178.25 L 90.9375 167.589844 L 90.933594 167.585938 C 90.933594 167.585938 97.910156 168.445312 106.601562 174.523438 C 106.601562 174.523438 110.59375 176.355469 119.652344 171.539062 C 119.652344 171.539062 125.496094 167.984375 132.492188 167.757812 C 132.492188 167.757812 142.953125 167.152344 148.773438 168.902344 C 148.773438 168.902344 141.929688 161.378906 130.195312 158.449219 C 128.261719 157.964844 126.195312 157.609375 124.007812 157.429688 C 124.007812 157.429688 124.007812 157.429688 124.011719 157.429688 C 124.183594 157.277344 133.507812 149.273438 161.609375 160.011719 C 161.609375 160.011719 180.183594 168.273438 199.015625 152.785156 C 199.015625 152.785156 211.65625 141.6875 206.753906 118.976562 L 206.753906 118.980469 L 206.757812 118.984375 C 207.203125 119.605469 230.949219 153.453125 197.722656 224.535156 C 197.722656 224.535156 176.832031 254.992188 175.542969 273.3125 C 175.542969 273.3125 167.804688 267.121094 175.28125 250.085938 C 175.28125 250.085938 159.292969 258.34375 166.253906 285.1875 C 166.253906 285.1875 172.445312 307.898438 176.828125 315.640625 C 176.828125 315.640625 176.3125 292.414062 186.113281 277.441406 C 186.113281 277.441406 201.585938 254.472656 215.390625 233.824219 C 215.390625 233.824219 215.390625 233.828125 215.394531 233.832031 C 215.480469 234.097656 218.410156 243.359375 204.6875 276.667969 C 204.6875 276.667969 193.597656 299.636719 200.558594 324.15625 C 200.558594 324.15625 206.492188 313.574219 217.84375 308.15625 C 229.191406 302.738281 244.667969 292.15625 246.472656 280.285156 C 246.472656 280.285156 254.472656 286.734375 250.859375 313.0625 C 250.859375 313.0625 269.433594 283.121094 261.691406 236.921875 C 261.695312 236.921875 254.730469 260.148438 240.800781 270.988281 Z M 46.046875 165.972656 C 41.453125 168.792969 38.117188 166.730469 37.910156 162.015625 C 37.875 161.246094 38.714844 158.921875 38.714844 158.921875 C 39.0625 159.820312 39.519531 160.621094 39.992188 161.296875 C 41.097656 162.863281 43.394531 162.988281 44.679688 161.566406 C 48.816406 156.988281 49.289062 153.398438 49.042969 151.308594 C 48.875 149.859375 47.316406 149.003906 46 149.632812 C 44.328125 150.425781 43.035156 152.050781 42.953125 152.148438 L 42.949219 152.15625 C 45.128906 139.882812 54.300781 143.207031 54.300781 143.207031 C 59.632812 145.726562 49.316406 163.96875 46.046875 165.972656 Z M 112.59375 123.351562 C 112.523438 123.394531 112.484375 123.417969 112.484375 123.417969 C 88.605469 129.296875 68.523438 142.191406 62.265625 145.871094 C 62.246094 145.882812 62.226562 145.890625 62.210938 145.902344 C 61.703125 146.199219 61.292969 146.433594 60.980469 146.597656 C 71.203125 135.214844 100.957031 122.742188 110.367188 118.988281 C 112.183594 118.261719 113.660156 119.675781 113.761719 121.183594 C 113.8125 121.984375 113.472656 122.808594 112.59375 123.351562 Z M 147.679688 102.796875 C 144.070312 103.144531 142.265625 112.949219 142.265625 112.949219 C 138.652344 124.304688 127.648438 123.015625 127.648438 123.015625 C 125.152344 126.96875 126.699219 128.433594 126.699219 128.433594 C 128.59375 128.863281 129.96875 129.464844 129.96875 129.464844 C 136.675781 132.824219 141.320312 128.261719 141.320312 128.261719 C 137.878906 140.304688 123.347656 134.628906 123.347656 134.628906 C 123.082031 134.519531 122.828125 134.402344 122.59375 134.28125 C 117.039062 131.4375 119.652344 125.425781 119.652344 125.425781 C 120.941406 123.53125 121.457031 120.261719 121.457031 120.261719 C 120.960938 115.070312 118.023438 113.652344 116.410156 113.265625 C 115.847656 113.132812 115.464844 112.601562 115.511719 112.023438 C 115.75 108.945312 114.058594 107.1875 114.058594 107.1875 C 112.261719 104.75 114.476562 105.492188 116.113281 106.234375 C 116.902344 106.59375 117.554688 106.953125 117.554688 106.953125 C 117.554688 106.953125 120.554688 108.039062 121.601562 108.222656 C 127.734375 109.3125 137.792969 97.8125 137.792969 97.8125 C 139.515625 93.941406 141.492188 94.117188 141.492188 94.117188 C 149.617188 95.550781 161.238281 104.328125 161.601562 104.605469 L 161.609375 104.609375 C 152.667969 102.367188 147.679688 102.796875 147.679688 102.796875 Z M 169.347656 55.742188 C 175.710938 44.902344 178.636719 30.964844 178.636719 30.964844 C 179.980469 43.859375 184.828125 61.246094 184.828125 61.246094 C 181.042969 75.871094 173.992188 87.574219 173.992188 87.574219 C 177.601562 68.300781 169.347656 55.742188 169.347656 55.742188 Z M 228.332031 180.828125 C 237.558594 125.464844 202.851562 94.535156 202.375 94.113281 L 202.367188 94.105469 C 253.78125 121.144531 228.332031 180.828125 228.332031 180.828125 Z M 228.332031 180.828125 " fill-opacity="1" fill-rule="nonzero"/><path fill="#ffffff" d="M 76.144531 168.136719 C 76.144531 168.136719 59.808594 168.609375 44.84375 175.320312 L 51.722656 180.828125 C 51.722656 180.828125 62.730469 171.625 76.144531 168.136719 Z M 76.144531 168.136719 " fill-opacity="1" fill-rule="nonzero"/><path fill="#ffffff" d="M 82.621094 181.785156 C 75.542969 185.285156 69.179688 188.425781 61.613281 192.441406 C 61.613281 192.441406 62.214844 194.019531 63.589844 195.625 C 63.589844 195.625 79.066406 188.820312 82.621094 181.785156 Z M 82.621094 181.785156 " fill-opacity="1" fill-rule="nonzero"/><path fill="#ed1e26" d="M 150.457031 316.414062 C 144.457031 293.703125 137.191406 282.003906 137.191406 282.003906 C 124.46875 304.371094 126.1875 337.40625 126.1875 337.40625 C 112.429688 332.933594 102.113281 324.15625 102.113281 324.15625 C 100.046875 309.53125 100.046875 293.355469 100.046875 293.355469 C 93.167969 297.832031 86.632812 305.402344 86.632812 305.402344 C 86.632812 305.402344 86.632812 305.398438 86.636719 305.386719 C 89.742188 281.992188 119.652344 265.828125 119.652344 265.828125 C 105.71875 298.804688 117.300781 323.558594 117.582031 324.148438 C 117.585938 324.148438 117.585938 324.148438 117.585938 324.152344 C 117.585938 324.152344 117.585938 324.15625 117.585938 324.15625 C 116.554688 291.636719 142.007812 247.585938 142.007812 247.585938 C 142.007812 247.585938 142.007812 247.589844 142.007812 247.597656 C 153.699219 294.050781 150.457031 316.414062 150.457031 316.414062 Z M 150.457031 316.414062 " fill-opacity="1" fill-rule="nonzero"/><path fill="#c51c23" d="M 254.644531 40.253906 C 254.644531 40.253906 237.210938 41.800781 218.5 33.027344 C 218.5 33.027344 207.949219 27.519531 188.648438 26.660156 C 188.648438 26.660156 189.296875 32.164062 190.328125 34.226562 C 190.328125 34.226562 202.882812 34.746094 210.449219 38.015625 C 210.449219 38.015625 217.328125 41.113281 225.238281 41.800781 C 225.238281 41.800781 207.007812 46.820312 193.9375 45.757812 C 193.9375 45.757812 194.972656 56.082031 199.441406 63.480469 C 199.441406 63.480469 231.769531 56.601562 258.597656 77.589844 C 258.597656 77.589844 273.214844 91.011719 291.101562 103.054688 C 291.101562 103.054688 278.375 102.539062 251.203125 80.34375 C 251.203125 80.34375 238.820312 70.363281 223.519531 72.773438 C 223.519531 72.773438 222.9375 76.386719 218.5 76.902344 L 221.109375 81.203125 C 221.109375 81.203125 246.734375 78.621094 266.855469 106.839844 C 266.855469 106.839844 253.441406 97.027344 233.148438 94.105469 C 233.148438 94.105469 239.421875 99.265625 242.777344 106.839844 C 242.777344 106.839844 256.707031 105.117188 268.746094 119.570312 C 268.746094 119.570312 273.042969 125.765625 282.414062 131.617188 L 276.910156 132.046875 C 276.910156 132.046875 258.597656 113.722656 247.675781 115.613281 C 247.675781 115.613281 254.640625 125.078125 256.707031 132.046875 C 256.707031 132.046875 309.414062 150.714844 315.863281 176.007812 C 315.863281 176.007812 288.265625 152.523438 260.148438 148.394531 C 260.148438 148.394531 264.535156 161.039062 264.792969 169.816406 C 264.792969 169.816406 281.558594 176.527344 286.457031 198.722656 C 291.359375 220.917969 314.058594 228.402344 314.058594 228.402344 C 314.058594 228.402344 288.519531 233.304688 281.042969 202.851562 C 281.042969 202.851562 278.203125 192.011719 268.402344 189.945312 C 268.402344 189.945312 271.753906 201.046875 270.980469 211.109375 C 270.980469 211.109375 272.542969 229.808594 294.453125 240.535156 C 294.453125 240.535156 331.339844 255.761719 336.757812 206.464844 C 336.757812 206.464844 325.148438 224.53125 310.449219 215.5 C 310.449219 215.5 301.933594 212.402344 301.417969 196.144531 C 301.417969 196.144531 299.613281 181.429688 286.457031 169.558594 C 286.457031 169.558594 313.542969 179.625 315.605469 189.691406 C 315.605469 189.691406 316.640625 201.5625 314.832031 205.691406 C 314.832031 205.691406 320.765625 203.882812 324.894531 175.753906 C 324.894531 175.753906 327 158.566406 301.421875 142.71875 C 301.421875 142.71875 288.316406 125.417969 280.011719 110.195312 C 280.011719 110.195312 297.292969 116.648438 312.511719 113.550781 C 312.511719 113.550781 293.941406 101.9375 278.207031 80.515625 C 262.472656 59.09375 229.710938 52.125 220.167969 50.835938 C 220.167969 50.835938 223.691406 48.6875 230.746094 48.515625 C 237.792969 48.339844 248.277344 46.71875 254.644531 40.253906 Z M 254.644531 40.253906 " fill-opacity="1" fill-rule="nonzero"/><path fill="#c51c23" d="M 281.816406 244.40625 C 281.816406 244.40625 294.710938 249.824219 297.550781 265.3125 C 300.386719 280.796875 309.15625 290.605469 312.511719 293.183594 C 312.511719 293.183594 302.449219 295.507812 292.648438 273.570312 C 292.648438 273.570312 288.519531 259.117188 270.464844 253.699219 C 270.464844 253.699219 270.722656 268.152344 266.855469 286.476562 C 266.855469 286.476562 273.5625 289.054688 275.882812 300.152344 C 275.882812 300.152344 276.65625 304.28125 281.558594 307.636719 C 281.558594 307.636719 273.5625 309.703125 265.566406 298.34375 C 265.566406 298.34375 264.019531 304.316406 261.695312 307.78125 C 261.695312 307.78125 273.820312 317.960938 300.90625 317.960938 C 300.90625 317.960938 287.234375 312.539062 280.785156 286.472656 C 280.785156 286.472656 304.003906 307.894531 334.699219 307.894531 C 334.699219 307.894531 317.613281 302.695312 308.128906 264.535156 C 308.125 264.535156 305.015625 243.632812 281.816406 244.40625 Z M 281.816406 244.40625 " fill-opacity="1" fill-rule="nonzero"/><path fill="#c51c23" d="M 199.015625 152.78125 C 180.183594 168.269531 161.609375 160.011719 161.609375 160.011719 C 133.503906 149.273438 124.183594 157.273438 124.011719 157.425781 C 132.4375 142.574219 165.949219 148.539062 165.949219 148.539062 C 200.308594 152.898438 206.753906 118.972656 206.753906 118.972656 C 211.65625 141.6875 199.015625 152.78125 199.015625 152.78125 Z M 199.015625 152.78125 " fill-opacity="1" fill-rule="nonzero"/><path fill="#c51c23" d="M 148.769531 168.898438 C 142.953125 167.152344 132.492188 167.753906 132.492188 167.753906 C 125.496094 167.984375 119.652344 171.539062 119.652344 171.539062 C 110.59375 176.355469 106.601562 174.519531 106.601562 174.519531 C 97.910156 168.441406 90.929688 167.582031 90.929688 167.582031 C 98.613281 165.75 107.382812 171.601562 126.214844 163.769531 C 128.792969 162.699219 132.617188 159.882812 130.210938 158.460938 L 130.191406 158.449219 C 141.925781 161.375 148.769531 168.898438 148.769531 168.898438 Z M 148.769531 168.898438 " fill-opacity="1" fill-rule="nonzero"/><path fill="#c51c23" d="M 99.015625 191.582031 C 94.199219 197.429688 83.253906 205.949219 83.253906 205.949219 C 80.386719 209.277344 79.125 207.097656 79.125 207.097656 C 77.976562 205.664062 79.527344 204.84375 79.527344 204.84375 C 81.785156 203.640625 83.375 197.316406 83.421875 197.121094 C 79.640625 201.589844 76.203125 203.082031 76.203125 203.082031 C 62.214844 208.355469 61.066406 200.097656 61.066406 200.097656 C 66.464844 207.640625 78.214844 198.0625 83.164062 193.441406 C 84.171875 192.496094 91.863281 186.261719 94.25 183.117188 C 97.558594 178.761719 91.132812 167.882812 90.9375 167.585938 L 100.734375 178.246094 C 104.863281 186.507812 99.015625 191.582031 99.015625 191.582031 Z M 99.015625 191.582031 " fill-opacity="1" fill-rule="nonzero"/><path fill="#f4424f" d="M 202.371094 222.097656 C 190.410156 247.980469 182.175781 251.847656 177.03125 281.503906 C 177.03125 281.503906 162.414062 269.332031 175.28125 250.085938 C 167.800781 267.117188 175.539062 273.3125 175.539062 273.3125 C 176.828125 254.988281 197.722656 224.53125 197.722656 224.53125 C 230.945312 153.449219 207.199219 119.605469 206.753906 118.980469 C 207.246094 119.453125 233.242188 155.308594 202.371094 222.097656 Z M 202.371094 222.097656 " fill-opacity="1" fill-rule="nonzero"/><path fill="#c51c23" d="M 250.863281 313.058594 C 254.472656 286.730469 246.476562 280.28125 246.476562 280.28125 C 244.667969 292.152344 229.195312 302.734375 217.84375 308.152344 C 206.496094 313.574219 200.5625 324.15625 200.5625 324.15625 C 193.597656 299.636719 204.6875 276.667969 204.6875 276.667969 C 218.414062 243.359375 215.484375 234.097656 215.394531 233.828125 C 215.585938 234.160156 223.675781 250.050781 210.050781 285.5 C 210.050781 285.5 207.300781 295.996094 207.300781 299.957031 C 207.300781 299.957031 240.488281 292.558594 242.894531 272.769531 C 242.894531 272.769531 252.351562 272.769531 254.757812 281.171875 C 254.757812 281.171875 263.988281 259.917969 261.695312 236.917969 C 269.433594 283.121094 250.863281 313.058594 250.863281 313.058594 Z M 250.863281 313.058594 " fill-opacity="1" fill-rule="nonzero"/><path fill="#c51c23" d="M 150.457031 316.414062 C 144.457031 293.703125 137.191406 282.003906 137.191406 282.003906 C 124.46875 304.371094 126.1875 337.40625 126.1875 337.40625 C 112.429688 332.933594 102.113281 324.15625 102.113281 324.15625 C 100.046875 309.53125 100.046875 293.355469 100.046875 293.355469 C 93.167969 297.832031 86.632812 305.402344 86.632812 305.402344 C 92.535156 291.921875 106.183594 281.546875 106.183594 281.546875 C 102.570312 298.238281 106.527344 321.121094 106.527344 321.121094 C 111.785156 326.324219 114.519531 327.910156 120.109375 330.753906 C 120.109375 297.890625 135.933594 275.179688 135.933594 275.179688 C 139.714844 277.242188 144.53125 282.75 144.53125 282.75 C 145.71875 273.242188 142.105469 248.273438 142.011719 247.601562 C 153.699219 294.050781 150.457031 316.414062 150.457031 316.414062 Z M 150.457031 316.414062 " fill-opacity="1" fill-rule="nonzero"/><path fill="#c51c23" d="M 147.226562 108.851562 C 145.390625 120.464844 139.425781 124.023438 130.601562 126.171875 C 130.601562 126.171875 135.160156 131.507812 149.976562 121.355469 C 149.976562 121.355469 142.464844 145.875 122.59375 134.28125 C 122.828125 134.40625 123.082031 134.523438 123.347656 134.628906 C 123.347656 134.628906 137.878906 140.308594 141.320312 128.261719 C 141.320312 128.261719 136.675781 132.824219 129.96875 129.46875 C 129.96875 129.46875 128.59375 128.867188 126.699219 128.4375 C 126.699219 128.4375 125.152344 126.972656 127.648438 123.015625 C 127.648438 123.015625 138.652344 124.308594 142.265625 112.953125 C 142.265625 112.953125 144.070312 103.144531 147.679688 102.800781 C 147.679688 102.800781 152.667969 102.371094 161.609375 104.609375 C 161.609375 104.605469 147.898438 104.574219 147.226562 108.851562 Z M 147.226562 108.851562 " fill-opacity="1" fill-rule="nonzero"/><path fill="#c51c23" d="M 112.027344 127.550781 C 98.121094 131.011719 88.003906 131.476562 62.265625 145.871094 C 68.523438 142.191406 88.605469 129.292969 112.484375 123.417969 C 112.484375 123.417969 112.523438 123.398438 112.59375 123.351562 C 113.472656 122.804688 113.8125 121.984375 113.757812 121.183594 C 113.757812 121.183594 115.960938 126.570312 112.027344 127.550781 Z M 112.027344 127.550781 " fill-opacity="1" fill-rule="nonzero"/><path fill="#c51c23" d="M 228.332031 180.828125 C 227.875 132.457031 202.761719 94.699219 202.375 94.113281 C 202.851562 94.535156 237.558594 125.464844 228.332031 180.828125 Z M 228.332031 180.828125 " fill-opacity="1" fill-rule="nonzero"/><path fill="#f4424f" d="M 167.917969 82.980469 C 167.917969 82.980469 154.273438 77.222656 148.828125 79.972656 C 148.828125 79.972656 121.707031 93.804688 112.175781 103.980469 C 110.449219 105.828125 111.015625 108.863281 113.332031 109.886719 C 113.351562 109.894531 113.371094 109.90625 113.390625 109.910156 C 113.390625 109.910156 109.105469 111.890625 109.445312 113.351562 C 109.445312 113.351562 82.386719 125.105469 74.25 132.695312 C 83.304688 122.484375 107.550781 111.714844 107.550781 111.714844 C 107.496094 110.679688 110.019531 109.335938 110.019531 109.335938 C 108.128906 108.300781 108.128906 106.410156 108.128906 106.410156 C 107.785156 100.054688 113.285156 96.953125 113.453125 96.863281 C 110.707031 101.160156 110.878906 104.085938 110.878906 104.085938 C 122.054688 88.597656 147.507812 75.640625 147.507812 75.640625 C 156.683594 71.738281 167.917969 82.980469 167.917969 82.980469 Z M 167.917969 82.980469 " fill-opacity="1" fill-rule="nonzero"/><path fill="#f4424f" d="M 83.535156 120.953125 C 74.550781 128.480469 74.25 132.695312 74.25 132.695312 C 74.25 132.695312 73.292969 132.695312 72.8125 129.910156 C 72.8125 129.910156 66.613281 133.230469 56.886719 142.003906 C 56.886719 142.003906 52.097656 138.820312 47.285156 139.507812 C 47.285156 139.507812 43.636719 140.203125 41.347656 145.039062 C 43.414062 139.1875 46.277344 138.328125 46.277344 138.328125 C 50.175781 137.125 56.023438 138.328125 56.023438 138.328125 C 68.476562 128.257812 83.304688 121.0625 83.535156 120.953125 Z M 83.535156 120.953125 " fill-opacity="1" fill-rule="nonzero"/><path fill="#c51c23" d="M 264.792969 215.929688 C 254.644531 181.785156 242.089844 176.527344 242.089844 176.527344 C 250.632812 179.167969 253.386719 180.828125 253.386719 180.828125 C 241.175781 91.703125 197.214844 72.644531 196.476562 72.273438 C 261.046875 95.515625 264.792969 215.929688 264.792969 215.929688 Z M 264.792969 215.929688 " fill-opacity="1" fill-rule="nonzero"/><path fill="#f4424f" d="M 85.875 169.195312 C 85.050781 168.039062 84.457031 167.292969 84.457031 167.292969 C 81.589844 164.195312 78.609375 164.082031 78.609375 164.082031 C 54.421875 162.046875 40.152344 171.9375 39.753906 172.222656 C 55.34375 159.949219 77.808594 161.535156 77.808594 161.535156 C 85.199219 162.640625 85.875 169.195312 85.875 169.195312 Z M 85.875 169.195312 " fill-opacity="1" fill-rule="nonzero"/><path fill="#f4424f" d="M 161.609375 104.605469 L 161.605469 104.601562 C 161.242188 104.324219 149.621094 95.546875 141.492188 94.113281 C 141.492188 94.113281 139.515625 93.9375 137.796875 97.808594 C 137.796875 97.808594 127.738281 109.308594 121.601562 108.21875 C 120.558594 108.03125 117.558594 106.949219 117.558594 106.949219 C 117.558594 106.949219 116.902344 106.589844 116.113281 106.230469 C 120.007812 107.1875 123.292969 106.554688 123.292969 106.554688 C 129.484375 105.179688 136.191406 96.144531 136.191406 96.144531 C 138.136719 90.867188 142.101562 91.757812 142.101562 91.757812 C 153.601562 94.515625 161.609375 104.605469 161.609375 104.605469 Z M 161.609375 104.605469 " fill-opacity="1" fill-rule="nonzero"/><path fill="#f4424f" d="M 117.582031 324.148438 C 104.917969 306.449219 113.289062 272.65625 113.289062 272.65625 C 91.679688 284.488281 86.785156 304.753906 86.632812 305.386719 C 89.738281 281.992188 119.652344 265.828125 119.652344 265.828125 C 105.714844 298.808594 117.300781 323.558594 117.582031 324.148438 Z M 117.582031 324.148438 " fill-opacity="1" fill-rule="nonzero"/><path fill="#f4424f" d="M 190.03125 59.265625 C 190.03125 59.265625 184.828125 53.101562 179.210938 21.328125 C 179.210938 21.328125 169.808594 46.140625 163.789062 52.640625 C 173.707031 30.964844 179.152344 12.117188 179.152344 12.117188 C 182.878906 25.792969 184.824219 35.015625 185.832031 41.058594 C 186.734375 46.4375 187.890625 51.78125 189.480469 57 C 189.722656 57.792969 189.898438 58.550781 190.03125 59.265625 Z M 190.03125 59.265625 " fill-opacity="1" fill-rule="nonzero"/><path fill="#c51c23" d="M 184.828125 61.246094 C 184.828125 61.246094 184.570312 84.386719 169.984375 96.40625 C 169.984375 96.40625 175.199219 69.164062 169.351562 55.742188 C 169.351562 55.742188 177.605469 68.300781 173.992188 87.574219 C 173.992188 87.574219 181.042969 75.867188 184.828125 61.246094 Z M 184.828125 61.246094 " fill-opacity="1" fill-rule="nonzero"/><path fill="#c51c23" d="M 44.679688 161.5625 C 43.394531 162.988281 41.097656 162.863281 39.992188 161.292969 C 39.519531 160.621094 39.0625 159.820312 38.714844 158.917969 C 39.519531 159.769531 39.878906 159.914062 40.527344 160.203125 C 41.636719 160.699219 42.917969 160.375 43.6875 159.4375 C 45.996094 156.628906 46.859375 152.539062 46.859375 152.539062 C 47.171875 148.582031 42.953125 152.148438 42.953125 152.148438 L 42.957031 152.144531 C 43.035156 152.042969 44.328125 150.417969 46 149.625 C 47.316406 149 48.878906 149.851562 49.046875 151.300781 C 49.289062 153.390625 48.816406 156.984375 44.679688 161.5625 Z M 44.679688 161.5625 " fill-opacity="1" fill-rule="nonzero"/></svg>