<svg xmlns="http://www.w3.org/2000/svg" xmlns:xlink="http://www.w3.org/1999/xlink" width="500" zoomAndPan="magnify" viewBox="0 0 375 374.999991" height="500" preserveAspectRatio="xMidYMid meet" version="1.0"><defs><g/><clipPath id="b4cbf4ea55"><path d="M 1 104.332031 L 148.5 104.332031 L 148.5 269 L 1 269 Z M 1 104.332031 " clip-rule="nonzero"/></clipPath></defs><g fill="#000000" fill-opacity="1"><g transform="translate(145.515116, 201.910909)"><g><path d="M 4.78125 -27.28125 L 4.78125 -37.4375 L 14.203125 -37.4375 L 14.203125 -27.28125 L 19.953125 -27.28125 L 19.953125 -20.109375 L 14.203125 -20.109375 L 14.203125 -11.4375 C 14.203125 -8.914062 14.910156 -7.65625 16.328125 -7.65625 C 16.679688 -7.65625 17.050781 -7.722656 17.4375 -7.859375 C 17.832031 -8.003906 18.132812 -8.148438 18.34375 -8.296875 L 18.671875 -8.515625 L 21.015625 -0.90625 C 18.992188 0.226562 16.6875 0.796875 14.09375 0.796875 C 12.320312 0.796875 10.796875 0.488281 9.515625 -0.125 C 8.242188 -0.75 7.28125 -1.582031 6.625 -2.625 C 5.96875 -3.675781 5.492188 -4.773438 5.203125 -5.921875 C 4.921875 -7.078125 4.78125 -8.3125 4.78125 -9.625 L 4.78125 -20.109375 L 0.84375 -20.109375 L 0.84375 -27.28125 Z M 4.78125 -27.28125 "/></g></g></g><g fill="#000000" fill-opacity="1"><g transform="translate(161.519876, 201.910909)"><g><path d="M 5.046875 -3.375 C 2.492188 -6.15625 1.21875 -9.566406 1.21875 -13.609375 C 1.21875 -17.648438 2.492188 -21.070312 5.046875 -23.875 C 7.597656 -26.675781 10.84375 -28.078125 14.78125 -28.078125 C 18.40625 -28.078125 21.382812 -26.941406 23.71875 -24.671875 L 23.71875 -45.734375 L 33.140625 -45.734375 L 33.140625 0 L 23.828125 0 L 23.828125 -3.078125 L 23.71875 -3.078125 C 21.382812 -0.492188 18.40625 0.796875 14.78125 0.796875 C 10.84375 0.796875 7.597656 -0.59375 5.046875 -3.375 Z M 13.046875 -18.234375 C 11.828125 -17.035156 11.21875 -15.492188 11.21875 -13.609375 C 11.21875 -11.734375 11.800781 -10.203125 12.96875 -9.015625 C 14.144531 -7.828125 15.691406 -7.234375 17.609375 -7.234375 C 19.453125 -7.234375 20.96875 -7.832031 22.15625 -9.03125 C 23.34375 -10.238281 23.9375 -11.765625 23.9375 -13.609375 C 23.9375 -15.492188 23.320312 -17.035156 22.09375 -18.234375 C 20.875 -19.441406 19.378906 -20.046875 17.609375 -20.046875 C 15.796875 -20.046875 14.273438 -19.441406 13.046875 -18.234375 Z M 13.046875 -18.234375 "/></g></g></g><g fill="#000000" fill-opacity="1"><g transform="translate(192.839569, 201.910909)"><g><path d="M 31.265625 -23.90625 C 33.828125 -21.125 35.109375 -17.710938 35.109375 -13.671875 C 35.109375 -9.628906 33.828125 -6.207031 31.265625 -3.40625 C 28.710938 -0.601562 25.472656 0.796875 21.546875 0.796875 C 17.921875 0.796875 14.941406 -0.335938 12.609375 -2.609375 L 12.609375 13.828125 L 3.1875 13.828125 L 3.1875 -27.28125 L 12.5 -27.28125 L 12.5 -24.203125 L 12.609375 -24.203125 C 14.941406 -26.785156 17.921875 -28.078125 21.546875 -28.078125 C 25.472656 -28.078125 28.710938 -26.6875 31.265625 -23.90625 Z M 23.265625 -9.03125 C 24.492188 -10.238281 25.109375 -11.78125 25.109375 -13.65625 C 25.109375 -15.539062 24.519531 -17.078125 23.34375 -18.265625 C 22.175781 -19.453125 20.632812 -20.046875 18.71875 -20.046875 C 16.875 -20.046875 15.359375 -19.441406 14.171875 -18.234375 C 12.984375 -17.035156 12.390625 -15.515625 12.390625 -13.671875 C 12.390625 -11.785156 13 -10.238281 14.21875 -9.03125 C 15.445312 -7.832031 16.945312 -7.234375 18.71875 -7.234375 C 20.53125 -7.234375 22.046875 -7.832031 23.265625 -9.03125 Z M 23.265625 -9.03125 "/></g></g></g><g fill="#000000" fill-opacity="1"><g transform="translate(224.159262, 201.910909)"><g/></g></g><g fill="#000000" fill-opacity="1"><g transform="translate(233.67646, 201.910909)"><g><path d="M 15.046875 -28.078125 C 16.609375 -28.078125 18.148438 -27.898438 19.671875 -27.546875 C 21.203125 -27.191406 22.335938 -26.835938 23.078125 -26.484375 L 24.203125 -25.953125 L 21.109375 -19.78125 C 18.984375 -20.914062 16.960938 -21.484375 15.046875 -21.484375 C 13.984375 -21.484375 13.226562 -21.367188 12.78125 -21.140625 C 12.34375 -20.910156 12.125 -20.476562 12.125 -19.84375 C 12.125 -19.695312 12.140625 -19.550781 12.171875 -19.40625 C 12.210938 -19.269531 12.285156 -19.140625 12.390625 -19.015625 C 12.492188 -18.890625 12.585938 -18.78125 12.671875 -18.6875 C 12.765625 -18.601562 12.914062 -18.507812 13.125 -18.40625 C 13.34375 -18.300781 13.515625 -18.21875 13.640625 -18.15625 C 13.765625 -18.101562 13.96875 -18.023438 14.25 -17.921875 C 14.539062 -17.816406 14.753906 -17.738281 14.890625 -17.6875 C 15.035156 -17.632812 15.273438 -17.550781 15.609375 -17.4375 C 15.941406 -17.332031 16.195312 -17.265625 16.375 -17.234375 C 17.476562 -16.910156 18.4375 -16.550781 19.25 -16.15625 C 20.070312 -15.769531 20.929688 -15.238281 21.828125 -14.5625 C 22.734375 -13.894531 23.429688 -13.046875 23.921875 -12.015625 C 24.421875 -10.992188 24.671875 -9.828125 24.671875 -8.515625 C 24.671875 -2.304688 20.363281 0.796875 11.75 0.796875 C 9.800781 0.796875 7.945312 0.492188 6.1875 -0.109375 C 4.4375 -0.710938 3.171875 -1.316406 2.390625 -1.921875 L 1.21875 -2.875 L 5.046875 -9.3125 C 5.335938 -9.0625 5.710938 -8.765625 6.171875 -8.421875 C 6.628906 -8.085938 7.460938 -7.628906 8.671875 -7.046875 C 9.878906 -6.460938 10.925781 -6.171875 11.8125 -6.171875 C 13.757812 -6.171875 14.734375 -6.828125 14.734375 -8.140625 C 14.734375 -8.742188 14.484375 -9.210938 13.984375 -9.546875 C 13.492188 -9.878906 12.65625 -10.257812 11.46875 -10.6875 C 10.28125 -11.113281 9.347656 -11.503906 8.671875 -11.859375 C 6.960938 -12.742188 5.613281 -13.742188 4.625 -14.859375 C 3.632812 -15.984375 3.140625 -17.46875 3.140625 -19.3125 C 3.140625 -22.070312 4.210938 -24.222656 6.359375 -25.765625 C 8.503906 -27.304688 11.398438 -28.078125 15.046875 -28.078125 Z M 15.046875 -28.078125 "/></g></g></g><g fill="#000000" fill-opacity="1"><g transform="translate(254.839386, 201.910909)"><g><path d="M 3.1875 0 L 3.1875 -45.734375 L 12.609375 -45.734375 L 12.609375 -24.40625 L 12.71875 -24.40625 C 15.15625 -26.851562 17.757812 -28.078125 20.53125 -28.078125 C 21.875 -28.078125 23.210938 -27.898438 24.546875 -27.546875 C 25.878906 -27.191406 27.15625 -26.640625 28.375 -25.890625 C 29.59375 -25.148438 30.582031 -24.097656 31.34375 -22.734375 C 32.113281 -21.367188 32.5 -19.785156 32.5 -17.984375 L 32.5 0 L 23.078125 0 L 23.078125 -15.421875 C 23.078125 -16.835938 22.625 -18.078125 21.71875 -19.140625 C 20.820312 -20.210938 19.644531 -20.75 18.1875 -20.75 C 16.769531 -20.75 15.484375 -20.195312 14.328125 -19.09375 C 13.179688 -18 12.609375 -16.773438 12.609375 -15.421875 L 12.609375 0 Z M 3.1875 0 "/></g></g></g><g fill="#000000" fill-opacity="1"><g transform="translate(284.989194, 201.910909)"><g><path d="M 5.765625 -3.234375 C 2.734375 -5.929688 1.21875 -9.390625 1.21875 -13.609375 C 1.21875 -17.835938 2.796875 -21.304688 5.953125 -24.015625 C 9.109375 -26.722656 13.007812 -28.078125 17.65625 -28.078125 C 22.226562 -28.078125 26.082031 -26.710938 29.21875 -23.984375 C 32.363281 -21.253906 33.9375 -17.796875 33.9375 -13.609375 C 33.9375 -9.429688 32.398438 -5.984375 29.328125 -3.265625 C 26.265625 -0.554688 22.375 0.796875 17.65625 0.796875 C 12.757812 0.796875 8.796875 -0.546875 5.765625 -3.234375 Z M 13.046875 -18.234375 C 11.828125 -17.035156 11.21875 -15.492188 11.21875 -13.609375 C 11.21875 -11.734375 11.800781 -10.203125 12.96875 -9.015625 C 14.144531 -7.828125 15.691406 -7.234375 17.609375 -7.234375 C 19.453125 -7.234375 20.96875 -7.832031 22.15625 -9.03125 C 23.34375 -10.238281 23.9375 -11.765625 23.9375 -13.609375 C 23.9375 -15.492188 23.320312 -17.035156 22.09375 -18.234375 C 20.875 -19.441406 19.378906 -20.046875 17.609375 -20.046875 C 15.796875 -20.046875 14.273438 -19.441406 13.046875 -18.234375 Z M 13.046875 -18.234375 "/></g></g></g><g fill="#000000" fill-opacity="1"><g transform="translate(315.139001, 201.910909)"><g><path d="M 31.265625 -23.90625 C 33.828125 -21.125 35.109375 -17.710938 35.109375 -13.671875 C 35.109375 -9.628906 33.828125 -6.207031 31.265625 -3.40625 C 28.710938 -0.601562 25.472656 0.796875 21.546875 0.796875 C 17.921875 0.796875 14.941406 -0.335938 12.609375 -2.609375 L 12.609375 13.828125 L 3.1875 13.828125 L 3.1875 -27.28125 L 12.5 -27.28125 L 12.5 -24.203125 L 12.609375 -24.203125 C 14.941406 -26.785156 17.921875 -28.078125 21.546875 -28.078125 C 25.472656 -28.078125 28.710938 -26.6875 31.265625 -23.90625 Z M 23.265625 -9.03125 C 24.492188 -10.238281 25.109375 -11.78125 25.109375 -13.65625 C 25.109375 -15.539062 24.519531 -17.078125 23.34375 -18.265625 C 22.175781 -19.453125 20.632812 -20.046875 18.71875 -20.046875 C 16.875 -20.046875 15.359375 -19.441406 14.171875 -18.234375 C 12.984375 -17.035156 12.390625 -15.515625 12.390625 -13.671875 C 12.390625 -11.785156 13 -10.238281 14.21875 -9.03125 C 15.445312 -7.832031 16.945312 -7.234375 18.71875 -7.234375 C 20.53125 -7.234375 22.046875 -7.832031 23.265625 -9.03125 Z M 23.265625 -9.03125 "/></g></g></g><g fill="#000000" fill-opacity="1"><g transform="translate(346.458688, 201.910909)"><g/></g></g><g fill="#000000" fill-opacity="1"><g transform="translate(355.97588, 201.910909)"><g><path d="M 9.25 -11.375 C 10.957031 -11.375 12.40625 -10.78125 13.59375 -9.59375 C 14.78125 -8.40625 15.375 -6.960938 15.375 -5.265625 C 15.375 -3.597656 14.78125 -2.171875 13.59375 -0.984375 C 12.40625 0.203125 10.957031 0.796875 9.25 0.796875 C 7.582031 0.796875 6.15625 0.203125 4.96875 -0.984375 C 3.78125 -2.171875 3.1875 -3.597656 3.1875 -5.265625 C 3.1875 -6.960938 3.78125 -8.40625 4.96875 -9.59375 C 6.15625 -10.78125 7.582031 -11.375 9.25 -11.375 Z M 9.25 -11.375 "/></g></g></g><g fill="#000000" fill-opacity="1"><g transform="translate(204.334634, 229.734227)"><g><path d="M 5.46875 -2.90625 C 5.46875 -2.78125 5.414062 -2.675781 5.3125 -2.59375 C 5.21875 -2.507812 5.109375 -2.46875 4.984375 -2.46875 L 1.34375 -2.46875 C 1.394531 -1.96875 1.585938 -1.5625 1.921875 -1.25 C 2.253906 -0.945312 2.660156 -0.796875 3.140625 -0.796875 C 3.472656 -0.796875 3.742188 -0.84375 3.953125 -0.9375 C 4.160156 -1.039062 4.34375 -1.164062 4.5 -1.3125 C 4.601562 -1.375 4.703125 -1.40625 4.796875 -1.40625 C 4.910156 -1.40625 5.003906 -1.363281 5.078125 -1.28125 C 5.160156 -1.207031 5.203125 -1.113281 5.203125 -1 C 5.203125 -0.851562 5.132812 -0.722656 5 -0.609375 C 4.800781 -0.410156 4.535156 -0.238281 4.203125 -0.09375 C 3.878906 0.0390625 3.546875 0.109375 3.203125 0.109375 C 2.640625 0.109375 2.144531 -0.00390625 1.71875 -0.234375 C 1.300781 -0.472656 0.976562 -0.800781 0.75 -1.21875 C 0.519531 -1.644531 0.40625 -2.125 0.40625 -2.65625 C 0.40625 -3.226562 0.519531 -3.734375 0.75 -4.171875 C 0.988281 -4.609375 1.300781 -4.941406 1.6875 -5.171875 C 2.082031 -5.410156 2.503906 -5.53125 2.953125 -5.53125 C 3.390625 -5.53125 3.800781 -5.414062 4.1875 -5.1875 C 4.570312 -4.957031 4.878906 -4.644531 5.109375 -4.25 C 5.347656 -3.851562 5.46875 -3.40625 5.46875 -2.90625 Z M 2.953125 -4.625 C 2.566406 -4.625 2.234375 -4.515625 1.953125 -4.296875 C 1.671875 -4.078125 1.484375 -3.742188 1.390625 -3.296875 L 4.4375 -3.296875 L 4.4375 -3.375 C 4.40625 -3.738281 4.238281 -4.035156 3.9375 -4.265625 C 3.644531 -4.503906 3.316406 -4.625 2.953125 -4.625 Z M 2.953125 -4.625 "/></g></g></g><g fill="#000000" fill-opacity="1"><g transform="translate(216.926287, 229.734227)"><g><path d="M 3.078125 -5.53125 C 3.617188 -5.53125 4.070312 -5.441406 4.4375 -5.265625 C 4.800781 -5.097656 4.984375 -4.878906 4.984375 -4.609375 C 4.984375 -4.492188 4.941406 -4.390625 4.859375 -4.296875 C 4.785156 -4.203125 4.691406 -4.15625 4.578125 -4.15625 C 4.484375 -4.15625 4.410156 -4.164062 4.359375 -4.1875 C 4.316406 -4.21875 4.25 -4.265625 4.15625 -4.328125 C 4.113281 -4.367188 4.046875 -4.414062 3.953125 -4.46875 C 3.878906 -4.507812 3.765625 -4.546875 3.609375 -4.578125 C 3.453125 -4.609375 3.316406 -4.625 3.203125 -4.625 C 2.835938 -4.625 2.515625 -4.539062 2.234375 -4.375 C 1.960938 -4.207031 1.75 -3.976562 1.59375 -3.6875 C 1.445312 -3.394531 1.375 -3.070312 1.375 -2.71875 C 1.375 -2.351562 1.445312 -2.023438 1.59375 -1.734375 C 1.75 -1.441406 1.957031 -1.210938 2.21875 -1.046875 C 2.488281 -0.878906 2.796875 -0.796875 3.140625 -0.796875 C 3.503906 -0.796875 3.796875 -0.851562 4.015625 -0.96875 C 4.054688 -1 4.117188 -1.046875 4.203125 -1.109375 C 4.273438 -1.160156 4.335938 -1.195312 4.390625 -1.21875 C 4.441406 -1.25 4.503906 -1.265625 4.578125 -1.265625 C 4.710938 -1.265625 4.816406 -1.222656 4.890625 -1.140625 C 4.972656 -1.054688 5.015625 -0.941406 5.015625 -0.796875 C 5.015625 -0.660156 4.921875 -0.519531 4.734375 -0.375 C 4.554688 -0.238281 4.316406 -0.125 4.015625 -0.03125 C 3.710938 0.0625 3.382812 0.109375 3.03125 0.109375 C 2.507812 0.109375 2.046875 -0.0078125 1.640625 -0.25 C 1.242188 -0.5 0.9375 -0.835938 0.71875 -1.265625 C 0.507812 -1.703125 0.40625 -2.1875 0.40625 -2.71875 C 0.40625 -3.238281 0.515625 -3.710938 0.734375 -4.140625 C 0.960938 -4.578125 1.28125 -4.914062 1.6875 -5.15625 C 2.09375 -5.40625 2.554688 -5.53125 3.078125 -5.53125 Z M 3.078125 -5.53125 "/></g></g></g><g fill="#000000" fill-opacity="1"><g transform="translate(228.941101, 229.734227)"><g><path d="M 5.84375 -2.703125 C 5.84375 -2.160156 5.722656 -1.675781 5.484375 -1.25 C 5.242188 -0.832031 4.914062 -0.5 4.5 -0.25 C 4.082031 -0.0078125 3.625 0.109375 3.125 0.109375 C 2.625 0.109375 2.164062 -0.0078125 1.75 -0.25 C 1.332031 -0.5 1.003906 -0.832031 0.765625 -1.25 C 0.523438 -1.675781 0.40625 -2.160156 0.40625 -2.703125 C 0.40625 -3.234375 0.523438 -3.71875 0.765625 -4.15625 C 1.003906 -4.59375 1.332031 -4.929688 1.75 -5.171875 C 2.164062 -5.410156 2.625 -5.53125 3.125 -5.53125 C 3.625 -5.53125 4.082031 -5.410156 4.5 -5.171875 C 4.914062 -4.929688 5.242188 -4.59375 5.484375 -4.15625 C 5.722656 -3.71875 5.84375 -3.234375 5.84375 -2.703125 Z M 4.875 -2.703125 C 4.875 -3.078125 4.796875 -3.410156 4.640625 -3.703125 C 4.484375 -3.992188 4.269531 -4.21875 4 -4.375 C 3.738281 -4.539062 3.445312 -4.625 3.125 -4.625 C 2.800781 -4.625 2.503906 -4.539062 2.234375 -4.375 C 1.972656 -4.21875 1.765625 -3.992188 1.609375 -3.703125 C 1.453125 -3.410156 1.375 -3.078125 1.375 -2.703125 C 1.375 -2.335938 1.453125 -2.007812 1.609375 -1.71875 C 1.765625 -1.4375 1.972656 -1.210938 2.234375 -1.046875 C 2.503906 -0.878906 2.800781 -0.796875 3.125 -0.796875 C 3.445312 -0.796875 3.738281 -0.878906 4 -1.046875 C 4.269531 -1.210938 4.484375 -1.4375 4.640625 -1.71875 C 4.796875 -2.007812 4.875 -2.335938 4.875 -2.703125 Z M 4.875 -2.703125 "/></g></g></g><g fill="#000000" fill-opacity="1"><g transform="translate(241.903588, 229.734227)"><g><path d="M 6.9375 -5.5 C 8.132812 -5.5 8.734375 -4.75 8.734375 -3.25 L 8.734375 -0.5 C 8.734375 -0.351562 8.6875 -0.234375 8.59375 -0.140625 C 8.507812 -0.046875 8.394531 0 8.25 0 C 8.101562 0 7.984375 -0.046875 7.890625 -0.140625 C 7.796875 -0.234375 7.75 -0.351562 7.75 -0.5 L 7.75 -3.234375 C 7.75 -4.140625 7.375 -4.59375 6.625 -4.59375 C 6.351562 -4.59375 6.109375 -4.53125 5.890625 -4.40625 C 5.671875 -4.289062 5.5 -4.128906 5.375 -3.921875 C 5.257812 -3.710938 5.203125 -3.484375 5.203125 -3.234375 L 5.203125 -0.5 C 5.203125 -0.351562 5.15625 -0.234375 5.0625 -0.140625 C 4.96875 -0.046875 4.851562 0 4.71875 0 C 4.570312 0 4.453125 -0.046875 4.359375 -0.140625 C 4.273438 -0.234375 4.234375 -0.351562 4.234375 -0.5 L 4.234375 -3.25 C 4.234375 -3.65625 4.144531 -3.976562 3.96875 -4.21875 C 3.800781 -4.46875 3.515625 -4.59375 3.109375 -4.59375 C 2.703125 -4.59375 2.367188 -4.460938 2.109375 -4.203125 C 1.847656 -3.941406 1.71875 -3.625 1.71875 -3.25 L 1.71875 -0.5 C 1.71875 -0.351562 1.671875 -0.234375 1.578125 -0.140625 C 1.484375 -0.046875 1.363281 0 1.21875 0 C 1.070312 0 0.953125 -0.046875 0.859375 -0.140625 C 0.773438 -0.234375 0.734375 -0.351562 0.734375 -0.5 L 0.734375 -4.90625 C 0.734375 -5.039062 0.78125 -5.15625 0.875 -5.25 C 0.96875 -5.351562 1.082031 -5.40625 1.21875 -5.40625 C 1.363281 -5.40625 1.484375 -5.351562 1.578125 -5.25 C 1.671875 -5.15625 1.71875 -5.039062 1.71875 -4.90625 L 1.71875 -4.546875 C 1.894531 -4.816406 2.128906 -5.039062 2.421875 -5.21875 C 2.722656 -5.40625 3.050781 -5.5 3.40625 -5.5 C 4.257812 -5.5 4.8125 -5.117188 5.0625 -4.359375 C 5.21875 -4.648438 5.46875 -4.910156 5.8125 -5.140625 C 6.164062 -5.378906 6.539062 -5.5 6.9375 -5.5 Z M 6.9375 -5.5 "/></g></g></g><g fill="#000000" fill-opacity="1"><g transform="translate(258.079908, 229.734227)"><g><path d="M 6.9375 -5.5 C 8.132812 -5.5 8.734375 -4.75 8.734375 -3.25 L 8.734375 -0.5 C 8.734375 -0.351562 8.6875 -0.234375 8.59375 -0.140625 C 8.507812 -0.046875 8.394531 0 8.25 0 C 8.101562 0 7.984375 -0.046875 7.890625 -0.140625 C 7.796875 -0.234375 7.75 -0.351562 7.75 -0.5 L 7.75 -3.234375 C 7.75 -4.140625 7.375 -4.59375 6.625 -4.59375 C 6.351562 -4.59375 6.109375 -4.53125 5.890625 -4.40625 C 5.671875 -4.289062 5.5 -4.128906 5.375 -3.921875 C 5.257812 -3.710938 5.203125 -3.484375 5.203125 -3.234375 L 5.203125 -0.5 C 5.203125 -0.351562 5.15625 -0.234375 5.0625 -0.140625 C 4.96875 -0.046875 4.851562 0 4.71875 0 C 4.570312 0 4.453125 -0.046875 4.359375 -0.140625 C 4.273438 -0.234375 4.234375 -0.351562 4.234375 -0.5 L 4.234375 -3.25 C 4.234375 -3.65625 4.144531 -3.976562 3.96875 -4.21875 C 3.800781 -4.46875 3.515625 -4.59375 3.109375 -4.59375 C 2.703125 -4.59375 2.367188 -4.460938 2.109375 -4.203125 C 1.847656 -3.941406 1.71875 -3.625 1.71875 -3.25 L 1.71875 -0.5 C 1.71875 -0.351562 1.671875 -0.234375 1.578125 -0.140625 C 1.484375 -0.046875 1.363281 0 1.21875 0 C 1.070312 0 0.953125 -0.046875 0.859375 -0.140625 C 0.773438 -0.234375 0.734375 -0.351562 0.734375 -0.5 L 0.734375 -4.90625 C 0.734375 -5.039062 0.78125 -5.15625 0.875 -5.25 C 0.96875 -5.351562 1.082031 -5.40625 1.21875 -5.40625 C 1.363281 -5.40625 1.484375 -5.351562 1.578125 -5.25 C 1.671875 -5.15625 1.71875 -5.039062 1.71875 -4.90625 L 1.71875 -4.546875 C 1.894531 -4.816406 2.128906 -5.039062 2.421875 -5.21875 C 2.722656 -5.40625 3.050781 -5.5 3.40625 -5.5 C 4.257812 -5.5 4.8125 -5.117188 5.0625 -4.359375 C 5.21875 -4.648438 5.46875 -4.910156 5.8125 -5.140625 C 6.164062 -5.378906 6.539062 -5.5 6.9375 -5.5 Z M 6.9375 -5.5 "/></g></g></g><g fill="#000000" fill-opacity="1"><g transform="translate(274.256228, 229.734227)"><g><path d="M 5.46875 -2.90625 C 5.46875 -2.78125 5.414062 -2.675781 5.3125 -2.59375 C 5.21875 -2.507812 5.109375 -2.46875 4.984375 -2.46875 L 1.34375 -2.46875 C 1.394531 -1.96875 1.585938 -1.5625 1.921875 -1.25 C 2.253906 -0.945312 2.660156 -0.796875 3.140625 -0.796875 C 3.472656 -0.796875 3.742188 -0.84375 3.953125 -0.9375 C 4.160156 -1.039062 4.34375 -1.164062 4.5 -1.3125 C 4.601562 -1.375 4.703125 -1.40625 4.796875 -1.40625 C 4.910156 -1.40625 5.003906 -1.363281 5.078125 -1.28125 C 5.160156 -1.207031 5.203125 -1.113281 5.203125 -1 C 5.203125 -0.851562 5.132812 -0.722656 5 -0.609375 C 4.800781 -0.410156 4.535156 -0.238281 4.203125 -0.09375 C 3.878906 0.0390625 3.546875 0.109375 3.203125 0.109375 C 2.640625 0.109375 2.144531 -0.00390625 1.71875 -0.234375 C 1.300781 -0.472656 0.976562 -0.800781 0.75 -1.21875 C 0.519531 -1.644531 0.40625 -2.125 0.40625 -2.65625 C 0.40625 -3.226562 0.519531 -3.734375 0.75 -4.171875 C 0.988281 -4.609375 1.300781 -4.941406 1.6875 -5.171875 C 2.082031 -5.410156 2.503906 -5.53125 2.953125 -5.53125 C 3.390625 -5.53125 3.800781 -5.414062 4.1875 -5.1875 C 4.570312 -4.957031 4.878906 -4.644531 5.109375 -4.25 C 5.347656 -3.851562 5.46875 -3.40625 5.46875 -2.90625 Z M 2.953125 -4.625 C 2.566406 -4.625 2.234375 -4.515625 1.953125 -4.296875 C 1.671875 -4.078125 1.484375 -3.742188 1.390625 -3.296875 L 4.4375 -3.296875 L 4.4375 -3.375 C 4.40625 -3.738281 4.238281 -4.035156 3.9375 -4.265625 C 3.644531 -4.503906 3.316406 -4.625 2.953125 -4.625 Z M 2.953125 -4.625 "/></g></g></g><g fill="#000000" fill-opacity="1"><g transform="translate(286.847881, 229.734227)"><g><path d="M 3.421875 -5.53125 C 3.597656 -5.53125 3.75 -5.484375 3.875 -5.390625 C 4.007812 -5.296875 4.078125 -5.179688 4.078125 -5.046875 C 4.078125 -4.878906 4.035156 -4.75 3.953125 -4.65625 C 3.867188 -4.570312 3.765625 -4.53125 3.640625 -4.53125 C 3.578125 -4.53125 3.484375 -4.550781 3.359375 -4.59375 C 3.210938 -4.644531 3.097656 -4.671875 3.015625 -4.671875 C 2.804688 -4.671875 2.597656 -4.597656 2.390625 -4.453125 C 2.191406 -4.304688 2.03125 -4.101562 1.90625 -3.84375 C 1.78125 -3.582031 1.71875 -3.296875 1.71875 -2.984375 L 1.71875 -0.5 C 1.71875 -0.351562 1.671875 -0.234375 1.578125 -0.140625 C 1.484375 -0.046875 1.363281 0 1.21875 0 C 1.070312 0 0.953125 -0.046875 0.859375 -0.140625 C 0.773438 -0.234375 0.734375 -0.351562 0.734375 -0.5 L 0.734375 -4.90625 C 0.734375 -5.039062 0.78125 -5.15625 0.875 -5.25 C 0.96875 -5.351562 1.082031 -5.40625 1.21875 -5.40625 C 1.363281 -5.40625 1.484375 -5.351562 1.578125 -5.25 C 1.671875 -5.15625 1.71875 -5.039062 1.71875 -4.90625 L 1.71875 -4.390625 C 1.863281 -4.722656 2.085938 -4.992188 2.390625 -5.203125 C 2.691406 -5.410156 3.035156 -5.519531 3.421875 -5.53125 Z M 3.421875 -5.53125 "/></g></g></g><g fill="#000000" fill-opacity="1"><g transform="translate(297.822324, 229.734227)"><g><path d="M 3.078125 -5.53125 C 3.617188 -5.53125 4.070312 -5.441406 4.4375 -5.265625 C 4.800781 -5.097656 4.984375 -4.878906 4.984375 -4.609375 C 4.984375 -4.492188 4.941406 -4.390625 4.859375 -4.296875 C 4.785156 -4.203125 4.691406 -4.15625 4.578125 -4.15625 C 4.484375 -4.15625 4.410156 -4.164062 4.359375 -4.1875 C 4.316406 -4.21875 4.25 -4.265625 4.15625 -4.328125 C 4.113281 -4.367188 4.046875 -4.414062 3.953125 -4.46875 C 3.878906 -4.507812 3.765625 -4.546875 3.609375 -4.578125 C 3.453125 -4.609375 3.316406 -4.625 3.203125 -4.625 C 2.835938 -4.625 2.515625 -4.539062 2.234375 -4.375 C 1.960938 -4.207031 1.75 -3.976562 1.59375 -3.6875 C 1.445312 -3.394531 1.375 -3.070312 1.375 -2.71875 C 1.375 -2.351562 1.445312 -2.023438 1.59375 -1.734375 C 1.75 -1.441406 1.957031 -1.210938 2.21875 -1.046875 C 2.488281 -0.878906 2.796875 -0.796875 3.140625 -0.796875 C 3.503906 -0.796875 3.796875 -0.851562 4.015625 -0.96875 C 4.054688 -1 4.117188 -1.046875 4.203125 -1.109375 C 4.273438 -1.160156 4.335938 -1.195312 4.390625 -1.21875 C 4.441406 -1.25 4.503906 -1.265625 4.578125 -1.265625 C 4.710938 -1.265625 4.816406 -1.222656 4.890625 -1.140625 C 4.972656 -1.054688 5.015625 -0.941406 5.015625 -0.796875 C 5.015625 -0.660156 4.921875 -0.519531 4.734375 -0.375 C 4.554688 -0.238281 4.316406 -0.125 4.015625 -0.03125 C 3.710938 0.0625 3.382812 0.109375 3.03125 0.109375 C 2.507812 0.109375 2.046875 -0.0078125 1.640625 -0.25 C 1.242188 -0.5 0.9375 -0.835938 0.71875 -1.265625 C 0.507812 -1.703125 0.40625 -2.1875 0.40625 -2.71875 C 0.40625 -3.238281 0.515625 -3.710938 0.734375 -4.140625 C 0.960938 -4.578125 1.28125 -4.914062 1.6875 -5.15625 C 2.09375 -5.40625 2.554688 -5.53125 3.078125 -5.53125 Z M 3.078125 -5.53125 "/></g></g></g><g fill="#000000" fill-opacity="1"><g transform="translate(309.837138, 229.734227)"><g><path d="M 5.46875 -2.90625 C 5.46875 -2.78125 5.414062 -2.675781 5.3125 -2.59375 C 5.21875 -2.507812 5.109375 -2.46875 4.984375 -2.46875 L 1.34375 -2.46875 C 1.394531 -1.96875 1.585938 -1.5625 1.921875 -1.25 C 2.253906 -0.945312 2.660156 -0.796875 3.140625 -0.796875 C 3.472656 -0.796875 3.742188 -0.84375 3.953125 -0.9375 C 4.160156 -1.039062 4.34375 -1.164062 4.5 -1.3125 C 4.601562 -1.375 4.703125 -1.40625 4.796875 -1.40625 C 4.910156 -1.40625 5.003906 -1.363281 5.078125 -1.28125 C 5.160156 -1.207031 5.203125 -1.113281 5.203125 -1 C 5.203125 -0.851562 5.132812 -0.722656 5 -0.609375 C 4.800781 -0.410156 4.535156 -0.238281 4.203125 -0.09375 C 3.878906 0.0390625 3.546875 0.109375 3.203125 0.109375 C 2.640625 0.109375 2.144531 -0.00390625 1.71875 -0.234375 C 1.300781 -0.472656 0.976562 -0.800781 0.75 -1.21875 C 0.519531 -1.644531 0.40625 -2.125 0.40625 -2.65625 C 0.40625 -3.226562 0.519531 -3.734375 0.75 -4.171875 C 0.988281 -4.609375 1.300781 -4.941406 1.6875 -5.171875 C 2.082031 -5.410156 2.503906 -5.53125 2.953125 -5.53125 C 3.390625 -5.53125 3.800781 -5.414062 4.1875 -5.1875 C 4.570312 -4.957031 4.878906 -4.644531 5.109375 -4.25 C 5.347656 -3.851562 5.46875 -3.40625 5.46875 -2.90625 Z M 2.953125 -4.625 C 2.566406 -4.625 2.234375 -4.515625 1.953125 -4.296875 C 1.671875 -4.078125 1.484375 -3.742188 1.390625 -3.296875 L 4.4375 -3.296875 L 4.4375 -3.375 C 4.40625 -3.738281 4.238281 -4.035156 3.9375 -4.265625 C 3.644531 -4.503906 3.316406 -4.625 2.953125 -4.625 Z M 2.953125 -4.625 "/></g></g></g><g clip-path="url(#b4cbf4ea55)"><path fill="#25225b" d="M 69.441406 104.328125 C 69.441406 104.328125 68.636719 110.058594 66.574219 113.382812 C 66.574219 113.382812 63.140625 114.644531 61.308594 116.707031 C 61.308594 116.707031 58.214844 115.101562 56.15625 110.515625 C 56.15625 110.515625 52.835938 115.328125 52.835938 123.925781 C 52.835938 123.925781 45.503906 123.582031 40.121094 127.363281 C 40.121094 127.363281 35.425781 130.6875 32.5625 136.757812 C 32.5625 136.757812 27.984375 146.15625 24.433594 149.59375 C 24.433594 149.59375 30.503906 147.300781 35.886719 143.636719 C 41.269531 139.96875 43.328125 141.917969 42.871094 142.832031 C 42.871094 142.832031 35.179688 147.074219 35.292969 151.425781 C 35.292969 151.425781 24.027344 156.773438 15.414062 162.464844 C 15.414062 162.464844 13.886719 163.535156 10.757812 162.375 C 10.757812 162.375 7.269531 160.9375 4.773438 167.8125 C 4.773438 167.8125 3.046875 173.46875 1.570312 176.625 C 1.570312 176.625 0.0429688 179.019531 2.789062 181.359375 C 2.789062 181.359375 8.492188 186.808594 11.238281 185.742188 C 11.238281 185.742188 13.375 188.492188 15.921875 186.960938 C 15.921875 186.960938 19.28125 184.621094 23.148438 183.246094 C 23.148438 183.246094 21.113281 186.148438 15.363281 189.101562 C 15.363281 189.101562 13.886719 189.710938 14.648438 191.34375 C 14.648438 191.34375 10.78125 192.871094 13.886719 194.449219 C 13.886719 194.449219 17.753906 200.917969 24.421875 198.21875 C 24.421875 198.21875 26.152344 201.042969 31.761719 197.378906 C 31.761719 197.378906 37.832031 192.679688 40.695312 189.929688 C 40.695312 189.929688 42.070312 189.125 41.152344 185.917969 C 41.152344 185.917969 47.910156 181.105469 59.476562 182.9375 C 59.476562 182.9375 61.195312 205.398438 40.351562 219.609375 C 40.351562 219.609375 26.039062 230.035156 24.777344 241.609375 C 24.777344 241.609375 35.3125 257.652344 63.027344 262.925781 C 63.027344 262.925781 68.949219 263.382812 77.726562 267.851562 C 77.726562 267.851562 82.152344 270.832031 85.929688 266.59375 C 85.929688 266.59375 102.304688 251.808594 107 246.996094 C 107 246.996094 108.492188 245.164062 112.269531 246.769531 C 112.269531 246.769531 125.78125 251.925781 133.113281 246.195312 C 133.113281 246.195312 127.957031 245.164062 121.546875 238.859375 C 121.546875 238.859375 134.601562 246.425781 148.457031 243.214844 C 148.457031 243.214844 135.746094 239.664062 132.207031 226.007812 C 132.207031 226.007812 131.050781 219.839844 129.449219 216.972656 C 129.449219 216.972656 147.542969 209.511719 143.417969 186.601562 C 143.417969 186.601562 139.296875 192.414062 135.632812 195.316406 C 135.632812 195.316406 142.503906 184.160156 136.394531 173.925781 C 136.394531 173.925781 133 168.957031 127.5 164.71875 C 127.5 164.71875 125.097656 162.425781 122.691406 158.644531 C 122.691406 158.644531 132.082031 159.675781 139.871094 157.5 C 139.871094 157.5 133.113281 156.355469 116.621094 137.21875 C 116.621094 137.21875 111.761719 130.941406 102.996094 126.789062 C 102.996094 126.789062 108.378906 125.070312 111.925781 118.769531 C 111.925781 118.769531 99.328125 121.632812 86.960938 114.871094 C 86.960938 114.871094 83.070312 112.351562 75.394531 112.578125 C 75.394531 112.578125 74.476562 108.339844 69.441406 104.328125 Z M 69.441406 104.328125 " fill-opacity="1" fill-rule="nonzero"/></g><path fill="#c51c23" d="M 63.765625 120.574219 C 63.765625 120.574219 58.445312 121.402344 57.53125 128.394531 C 57.53125 128.394531 42.527344 124.382812 36.230469 138.476562 C 36.230469 138.476562 39.894531 135.269531 47.796875 138.476562 C 47.796875 138.476562 49.628906 136.644531 51.347656 136.070312 C 51.347656 136.070312 49.535156 134.5 43.902344 134.695312 C 43.902344 134.695312 47.222656 130.113281 55.699219 133.777344 C 55.699219 133.777344 57.554688 134.554688 61.933594 133.742188 C 61.933594 133.742188 61.578125 131.066406 60.203125 128.699219 C 60.203125 128.699219 60.175781 123.859375 63.765625 120.574219 Z M 63.765625 120.574219 " fill-opacity="1" fill-rule="nonzero"/><path fill="#ffffff" d="M 52.949219 151.3125 C 52.949219 151.3125 48.332031 153.109375 46.039062 155.628906 C 46.039062 155.628906 47.871094 158.265625 50.011719 157.003906 C 50.011719 157.003906 52.953125 155.019531 52.949219 151.3125 Z M 52.949219 151.3125 " fill-opacity="1" fill-rule="nonzero"/><path fill="#ed1e26" d="M 97.957031 224.652344 C 97.957031 224.652344 101.734375 204.941406 98.527344 182.710938 C 98.527344 182.710938 104.101562 185.046875 108.605469 200.207031 C 108.605469 200.207031 106.941406 146.742188 78.273438 136.421875 C 78.273438 136.421875 78.269531 136.421875 78.269531 136.421875 C 78.269531 136.421875 76.308594 139.851562 72.988281 141.800781 C 72.988281 141.800781 74.707031 137.675781 75.277344 134.007812 C 75.277344 134.007812 75.789062 132.683594 75.414062 130.648438 C 75.355469 130.328125 75.277344 129.992188 75.171875 129.640625 C 74.464844 127.324219 73.953125 124.953125 73.550781 122.5625 C 73.101562 119.878906 72.238281 115.785156 70.585938 109.714844 C 70.585938 109.714844 68.167969 118.082031 63.765625 127.707031 C 63.765625 127.707031 62.492188 129.921875 63.511719 131.042969 C 63.511719 131.042969 66.820312 135.929688 65.597656 141.175781 C 65.597656 141.175781 60.609375 136.1875 56.539062 137.917969 C 56.539062 137.917969 45.238281 143.671875 40.277344 150.550781 C 40.277344 150.550781 40.199219 149.25 41.421875 147.34375 C 41.34375 147.382812 38.90625 148.757812 39.054688 151.582031 C 39.054688 151.582031 39.054688 152.421875 39.894531 152.878906 C 39.894531 152.878906 38.777344 153.476562 38.800781 153.9375 C 38.800781 153.9375 28.035156 158.71875 24.015625 163.25 C 24.015625 163.25 24.148438 161.378906 28.136719 158.039062 C 28.035156 158.085938 21.453125 161.28125 15.921875 165.753906 C 15.921875 165.753906 13.328125 165.21875 11.597656 165.753906 C 11.597656 165.753906 10.324219 166.132812 9.40625 168.730469 C 9.40625 168.730469 7.320312 172.804688 6.355469 176.371094 C 6.355469 176.371094 5.640625 178.304688 7.015625 179.019531 C 7.015625 179.019531 8.1875 180.039062 8.695312 180.800781 C 8.695312 180.800781 8.695312 180.800781 8.699219 180.800781 C 8.875 180.675781 15.210938 176.28125 25.949219 177.1875 C 25.949219 177.1875 27.269531 177.238281 28.542969 178.613281 C 28.542969 178.613281 28.808594 178.941406 29.175781 179.457031 C 30 180.617188 31.34375 182.707031 31.34375 184.011719 C 31.34375 184.011719 31.085938 186.660156 26.710938 189.15625 C 26.710938 189.15625 21.570312 193.128906 19.839844 192.160156 C 19.839844 192.160156 18.871094 192.261719 18.160156 193.179688 C 18.160156 193.179688 18.667969 196.84375 24.878906 194.503906 C 24.878906 194.503906 26.40625 193.839844 28.085938 191.855469 C 28.0625 191.941406 27.359375 194.75 26.355469 195.285156 C 26.355469 195.285156 25.667969 195.648438 26.175781 196.285156 C 26.175781 196.285156 26.738281 197.253906 28.007812 195.777344 C 28.007812 195.777344 32.871094 191.996094 35.007812 189.398438 C 35.007812 189.398438 37.601562 187.144531 35.769531 183.476562 L 31.421875 178.742188 L 31.417969 178.742188 C 31.417969 178.742188 34.519531 179.121094 38.378906 181.820312 C 38.378906 181.820312 40.148438 182.636719 44.171875 180.496094 C 44.171875 180.496094 46.765625 178.917969 49.871094 178.816406 C 49.871094 178.816406 54.515625 178.550781 57.097656 179.324219 C 57.097656 179.324219 54.058594 175.984375 48.851562 174.683594 C 47.992188 174.46875 47.074219 174.3125 46.105469 174.234375 C 46.105469 174.234375 46.105469 174.230469 46.105469 174.230469 C 46.183594 174.164062 50.320312 170.609375 62.796875 175.378906 C 62.796875 175.378906 71.042969 179.046875 79.402344 172.167969 C 79.402344 172.167969 85.015625 167.242188 82.839844 157.160156 C 83.039062 157.4375 93.582031 172.464844 78.832031 204.027344 C 78.832031 204.027344 69.554688 217.550781 68.984375 225.683594 C 68.984375 225.683594 65.546875 222.933594 68.867188 215.371094 C 68.867188 215.371094 61.769531 219.039062 64.859375 230.957031 C 64.859375 230.957031 67.605469 241.039062 69.554688 244.476562 C 69.554688 244.476562 69.324219 234.164062 73.675781 227.519531 C 73.675781 227.519531 80.546875 217.320312 86.671875 208.152344 C 86.671875 208.152344 86.671875 208.152344 86.675781 208.152344 C 86.714844 208.273438 88.015625 212.386719 81.921875 227.175781 C 81.921875 227.175781 77 237.371094 80.089844 248.257812 C 80.089844 248.257812 82.722656 243.5625 87.761719 241.15625 C 92.800781 238.75 99.671875 234.050781 100.472656 228.777344 C 100.472656 228.777344 104.023438 231.644531 102.421875 243.332031 C 102.421875 243.332031 110.664062 230.039062 107.230469 209.527344 C 107.230469 209.527344 104.136719 219.839844 97.957031 224.652344 Z M 11.492188 178.027344 C 9.453125 179.277344 7.972656 178.363281 7.878906 176.269531 C 7.863281 175.925781 8.238281 174.894531 8.238281 174.894531 C 8.390625 175.292969 8.597656 175.648438 8.804688 175.949219 C 9.292969 176.644531 10.316406 176.699219 10.886719 176.066406 C 12.722656 174.035156 12.933594 172.441406 12.824219 171.515625 C 12.75 170.871094 12.054688 170.492188 11.472656 170.769531 C 10.730469 171.121094 10.15625 171.84375 10.121094 171.886719 L 10.117188 171.890625 C 11.085938 166.441406 15.15625 167.917969 15.15625 167.917969 C 17.523438 169.035156 12.945312 177.132812 11.492188 178.027344 Z M 41.035156 159.101562 C 41.007812 159.121094 40.988281 159.128906 40.988281 159.128906 C 30.386719 161.742188 21.472656 167.464844 18.691406 169.101562 C 18.683594 169.105469 18.675781 169.109375 18.667969 169.113281 C 18.445312 169.246094 18.261719 169.351562 18.121094 169.421875 C 22.660156 164.367188 35.871094 158.832031 40.046875 157.164062 C 40.855469 156.839844 41.511719 157.46875 41.554688 158.136719 C 41.578125 158.492188 41.425781 158.859375 41.035156 159.101562 Z M 56.613281 149.976562 C 55.011719 150.128906 54.210938 154.484375 54.210938 154.484375 C 52.605469 159.523438 47.71875 158.953125 47.71875 158.953125 C 46.613281 160.707031 47.300781 161.359375 47.300781 161.359375 C 48.140625 161.546875 48.75 161.816406 48.75 161.816406 C 51.726562 163.308594 53.789062 161.28125 53.789062 161.28125 C 52.261719 166.628906 45.8125 164.109375 45.8125 164.109375 C 45.691406 164.058594 45.582031 164.007812 45.476562 163.953125 C 43.011719 162.691406 44.167969 160.023438 44.167969 160.023438 C 44.742188 159.179688 44.972656 157.730469 44.972656 157.730469 C 44.75 155.425781 43.449219 154.792969 42.730469 154.625 C 42.480469 154.5625 42.3125 154.328125 42.332031 154.070312 C 42.4375 152.703125 41.6875 151.925781 41.6875 151.925781 C 40.890625 150.84375 41.871094 151.171875 42.597656 151.5 C 42.949219 151.660156 43.238281 151.820312 43.238281 151.820312 C 43.238281 151.820312 44.570312 152.300781 45.035156 152.382812 C 47.757812 152.867188 52.226562 147.761719 52.226562 147.761719 C 52.988281 146.042969 53.867188 146.121094 53.867188 146.121094 C 57.472656 146.757812 62.632812 150.65625 62.792969 150.777344 L 62.796875 150.78125 C 58.828125 149.785156 56.613281 149.976562 56.613281 149.976562 Z M 66.234375 129.082031 C 69.058594 124.269531 70.355469 118.082031 70.355469 118.082031 C 70.953125 123.804688 73.105469 131.527344 73.105469 131.527344 C 71.425781 138.019531 68.296875 143.214844 68.296875 143.214844 C 69.898438 134.660156 66.234375 129.082031 66.234375 129.082031 Z M 92.417969 184.621094 C 96.515625 160.039062 81.105469 146.308594 80.894531 146.121094 C 80.894531 146.117188 80.894531 146.117188 80.894531 146.117188 C 103.71875 158.121094 92.417969 184.621094 92.417969 184.621094 Z M 92.417969 184.621094 " fill-opacity="1" fill-rule="nonzero"/><path fill="#ffffff" d="M 24.855469 178.988281 C 24.855469 178.988281 17.601562 179.195312 10.960938 182.175781 L 14.011719 184.621094 C 14.011719 184.621094 18.898438 180.535156 24.855469 178.988281 Z M 24.855469 178.988281 " fill-opacity="1" fill-rule="nonzero"/><path fill="#ffffff" d="M 27.730469 185.046875 C 24.585938 186.601562 21.761719 187.996094 18.402344 189.777344 C 18.402344 189.777344 18.671875 190.476562 19.28125 191.191406 C 19.28125 191.191406 26.152344 188.167969 27.730469 185.046875 Z M 27.730469 185.046875 " fill-opacity="1" fill-rule="nonzero"/><path fill="#ed1e26" d="M 57.84375 244.820312 C 55.183594 234.738281 51.957031 229.542969 51.957031 229.542969 C 46.308594 239.472656 47.070312 254.140625 47.070312 254.140625 C 40.964844 252.15625 36.382812 248.257812 36.382812 248.257812 C 35.464844 241.765625 35.464844 234.582031 35.464844 234.582031 C 32.414062 236.570312 29.511719 239.929688 29.511719 239.929688 C 29.511719 239.929688 29.511719 239.929688 29.511719 239.925781 C 30.890625 229.539062 44.171875 222.359375 44.171875 222.359375 C 37.984375 237.003906 43.125 247.992188 43.25 248.253906 C 43.253906 248.253906 43.253906 248.253906 43.253906 248.257812 C 42.796875 233.820312 54.09375 214.261719 54.09375 214.261719 C 54.09375 214.261719 54.09375 214.261719 54.097656 214.265625 C 59.285156 234.890625 57.84375 244.820312 57.84375 244.820312 Z M 57.84375 244.820312 " fill-opacity="1" fill-rule="nonzero"/><path fill="#c51c23" d="M 104.101562 122.207031 C 104.101562 122.207031 96.359375 122.894531 88.054688 118.996094 C 88.054688 118.996094 83.371094 116.550781 74.800781 116.167969 C 74.800781 116.167969 75.089844 118.613281 75.546875 119.53125 C 75.546875 119.53125 81.121094 119.761719 84.480469 121.210938 C 84.480469 121.210938 87.535156 122.585938 91.046875 122.894531 C 91.046875 122.894531 82.953125 125.121094 77.148438 124.648438 C 77.148438 124.648438 77.609375 129.234375 79.59375 132.519531 C 79.59375 132.519531 93.945312 129.464844 105.855469 138.785156 C 105.855469 138.785156 112.34375 144.742188 120.285156 150.089844 C 120.285156 150.089844 114.636719 149.859375 102.574219 140.003906 C 102.574219 140.003906 97.074219 135.574219 90.28125 136.644531 C 90.28125 136.644531 90.023438 138.25 88.054688 138.476562 L 89.214844 140.386719 C 89.214844 140.386719 100.589844 139.242188 109.519531 151.769531 C 109.519531 151.769531 103.566406 147.414062 94.558594 146.117188 C 94.558594 146.117188 97.34375 148.40625 98.832031 151.769531 C 98.832031 151.769531 105.015625 151.003906 110.359375 157.421875 C 110.359375 157.421875 112.269531 160.171875 116.429688 162.769531 L 113.988281 162.960938 C 113.988281 162.960938 105.855469 154.828125 101.007812 155.664062 C 101.007812 155.664062 104.097656 159.867188 105.015625 162.960938 C 105.015625 162.960938 128.417969 171.25 131.28125 182.480469 C 131.28125 182.480469 119.027344 172.054688 106.542969 170.21875 C 106.542969 170.21875 108.492188 175.835938 108.605469 179.730469 C 108.605469 179.730469 116.050781 182.710938 118.222656 192.566406 C 120.398438 202.421875 130.476562 205.742188 130.476562 205.742188 C 130.476562 205.742188 119.140625 207.921875 115.820312 194.398438 C 115.820312 194.398438 114.558594 189.585938 110.207031 188.667969 C 110.207031 188.667969 111.695312 193.597656 111.355469 198.066406 C 111.355469 198.066406 112.046875 206.367188 121.773438 211.128906 C 121.773438 211.128906 138.148438 217.890625 140.554688 196.003906 C 140.554688 196.003906 135.402344 204.023438 128.875 200.015625 C 128.875 200.015625 125.09375 198.640625 124.867188 191.421875 C 124.867188 191.421875 124.0625 184.890625 118.222656 179.617188 C 118.222656 179.617188 130.25 184.085938 131.164062 188.554688 C 131.164062 188.554688 131.625 193.828125 130.820312 195.660156 C 130.820312 195.660156 133.457031 194.859375 135.289062 182.367188 C 135.289062 182.367188 136.222656 174.738281 124.867188 167.699219 C 124.867188 167.699219 119.050781 160.019531 115.363281 153.261719 C 115.363281 153.261719 123.035156 156.125 129.792969 154.75 C 129.792969 154.75 121.546875 149.59375 114.5625 140.082031 C 107.578125 130.570312 93.03125 127.476562 88.792969 126.90625 C 88.792969 126.90625 90.359375 125.949219 93.488281 125.875 C 96.617188 125.796875 101.273438 125.078125 104.101562 122.207031 Z M 104.101562 122.207031 " fill-opacity="1" fill-rule="nonzero"/><path fill="#c51c23" d="M 116.164062 212.847656 C 116.164062 212.847656 121.886719 215.253906 123.148438 222.132812 C 124.410156 229.007812 128.300781 233.363281 129.789062 234.507812 C 129.789062 234.507812 125.324219 235.539062 120.972656 225.796875 C 120.972656 225.796875 119.140625 219.382812 111.125 216.976562 C 111.125 216.976562 111.238281 223.390625 109.519531 231.527344 C 109.519531 231.527344 112.5 232.675781 113.53125 237.601562 C 113.53125 237.601562 113.875 239.433594 116.050781 240.925781 C 116.050781 240.925781 112.5 241.839844 108.949219 236.796875 C 108.949219 236.796875 108.261719 239.449219 107.230469 240.988281 C 107.230469 240.988281 112.613281 245.507812 124.640625 245.507812 C 124.640625 245.507812 118.570312 243.101562 115.707031 231.527344 C 115.707031 231.527344 126.011719 241.039062 139.640625 241.039062 C 139.640625 241.039062 132.058594 238.730469 127.84375 221.785156 C 127.84375 221.789062 126.464844 212.503906 116.164062 212.847656 Z M 116.164062 212.847656 " fill-opacity="1" fill-rule="nonzero"/><path fill="#c51c23" d="M 79.402344 172.167969 C 71.042969 179.046875 62.796875 175.378906 62.796875 175.378906 C 50.320312 170.609375 46.183594 174.164062 46.105469 174.230469 C 49.84375 167.636719 64.722656 170.285156 64.722656 170.285156 C 79.976562 172.21875 82.839844 157.15625 82.839844 157.15625 C 85.015625 167.242188 79.402344 172.167969 79.402344 172.167969 Z M 79.402344 172.167969 " fill-opacity="1" fill-rule="nonzero"/><path fill="#c51c23" d="M 57.097656 179.324219 C 54.515625 178.546875 49.871094 178.816406 49.871094 178.816406 C 46.765625 178.917969 44.167969 180.496094 44.167969 180.496094 C 40.148438 182.632812 38.375 181.820312 38.375 181.820312 C 34.515625 179.121094 31.417969 178.738281 31.417969 178.738281 C 34.828125 177.925781 38.722656 180.523438 47.082031 177.046875 C 48.226562 176.570312 49.925781 175.320312 48.859375 174.691406 L 48.847656 174.683594 C 54.058594 175.984375 57.097656 179.324219 57.097656 179.324219 Z M 57.097656 179.324219 " fill-opacity="1" fill-rule="nonzero"/><path fill="#c51c23" d="M 35.007812 189.394531 C 32.871094 191.992188 28.011719 195.773438 28.011719 195.773438 C 26.738281 197.25 26.179688 196.285156 26.179688 196.285156 C 25.667969 195.648438 26.355469 195.285156 26.355469 195.285156 C 27.359375 194.75 28.0625 191.941406 28.085938 191.855469 C 26.40625 193.839844 24.878906 194.5 24.878906 194.5 C 18.671875 196.84375 18.160156 193.175781 18.160156 193.175781 C 20.558594 196.527344 25.773438 192.273438 27.96875 190.222656 C 28.417969 189.800781 31.832031 187.03125 32.894531 185.636719 C 34.359375 183.703125 31.507812 178.871094 31.421875 178.742188 L 35.769531 183.472656 C 37.605469 187.140625 35.007812 189.394531 35.007812 189.394531 Z M 35.007812 189.394531 " fill-opacity="1" fill-rule="nonzero"/><path fill="#f4424f" d="M 80.894531 202.945312 C 75.582031 214.4375 71.925781 216.152344 69.644531 229.320312 C 69.644531 229.320312 63.15625 223.917969 68.867188 215.371094 C 65.546875 222.933594 68.980469 225.683594 68.980469 225.683594 C 69.554688 217.546875 78.828125 204.023438 78.828125 204.023438 C 93.578125 172.464844 83.039062 157.4375 82.839844 157.160156 C 83.058594 157.371094 94.597656 173.289062 80.894531 202.945312 Z M 80.894531 202.945312 " fill-opacity="1" fill-rule="nonzero"/><path fill="#c51c23" d="M 102.421875 243.332031 C 104.023438 231.640625 100.472656 228.777344 100.472656 228.777344 C 99.671875 234.046875 92.800781 238.746094 87.761719 241.152344 C 82.726562 243.558594 80.089844 248.257812 80.089844 248.257812 C 77 237.371094 81.921875 227.171875 81.921875 227.171875 C 88.015625 212.386719 86.714844 208.273438 86.675781 208.152344 C 86.761719 208.300781 90.351562 215.355469 84.304688 231.097656 C 84.304688 231.097656 83.082031 235.753906 83.082031 237.511719 C 83.082031 237.511719 97.816406 234.230469 98.882812 225.441406 C 98.882812 225.441406 103.082031 225.441406 104.152344 229.171875 C 104.152344 229.171875 108.25 219.734375 107.230469 209.523438 C 110.667969 230.039062 102.421875 243.332031 102.421875 243.332031 Z M 102.421875 243.332031 " fill-opacity="1" fill-rule="nonzero"/><path fill="#c51c23" d="M 57.84375 244.820312 C 55.183594 234.738281 51.957031 229.542969 51.957031 229.542969 C 46.308594 239.472656 47.070312 254.140625 47.070312 254.140625 C 40.964844 252.15625 36.382812 248.257812 36.382812 248.257812 C 35.464844 241.765625 35.464844 234.582031 35.464844 234.582031 C 32.414062 236.570312 29.511719 239.929688 29.511719 239.929688 C 32.132812 233.945312 38.191406 229.339844 38.191406 229.339844 C 36.585938 236.75 38.34375 246.910156 38.34375 246.910156 C 40.679688 249.222656 41.890625 249.925781 44.375 251.1875 C 44.375 236.597656 51.398438 226.511719 51.398438 226.511719 C 53.078125 227.429688 55.214844 229.875 55.214844 229.875 C 55.742188 225.652344 54.140625 214.566406 54.097656 214.269531 C 59.285156 234.890625 57.84375 244.820312 57.84375 244.820312 Z M 57.84375 244.820312 " fill-opacity="1" fill-rule="nonzero"/><path fill="#c51c23" d="M 56.410156 152.664062 C 55.597656 157.820312 52.949219 159.398438 49.03125 160.355469 C 49.03125 160.355469 51.054688 162.722656 57.632812 158.214844 C 57.632812 158.214844 54.296875 169.101562 45.476562 163.953125 C 45.582031 164.007812 45.691406 164.0625 45.8125 164.109375 C 45.8125 164.109375 52.261719 166.628906 53.789062 161.28125 C 53.789062 161.28125 51.726562 163.308594 48.75 161.816406 C 48.75 161.816406 48.140625 161.550781 47.300781 161.359375 C 47.300781 161.359375 46.613281 160.710938 47.71875 158.953125 C 47.71875 158.953125 52.605469 159.527344 54.210938 154.484375 C 54.210938 154.484375 55.011719 150.128906 56.613281 149.976562 C 56.613281 149.976562 58.828125 149.785156 62.796875 150.777344 C 62.796875 150.777344 56.710938 150.765625 56.410156 152.664062 Z M 56.410156 152.664062 " fill-opacity="1" fill-rule="nonzero"/><path fill="#c51c23" d="M 40.785156 160.964844 C 34.609375 162.503906 30.121094 162.707031 18.691406 169.101562 C 21.472656 167.464844 30.386719 161.738281 40.988281 159.128906 C 40.988281 159.128906 41.007812 159.121094 41.035156 159.101562 C 41.425781 158.859375 41.578125 158.492188 41.554688 158.136719 C 41.554688 158.140625 42.53125 160.53125 40.785156 160.964844 Z M 40.785156 160.964844 " fill-opacity="1" fill-rule="nonzero"/><path fill="#c51c23" d="M 92.417969 184.621094 C 92.214844 163.144531 81.066406 146.378906 80.894531 146.121094 C 81.105469 146.308594 96.515625 160.039062 92.417969 184.621094 Z M 92.417969 184.621094 " fill-opacity="1" fill-rule="nonzero"/><path fill="#f4424f" d="M 65.597656 141.175781 C 65.597656 141.175781 59.539062 138.621094 57.121094 139.839844 C 57.121094 139.839844 45.082031 145.980469 40.851562 150.5 C 40.082031 151.320312 40.335938 152.667969 41.363281 153.121094 C 41.371094 153.125 41.382812 153.132812 41.390625 153.132812 C 41.390625 153.132812 39.488281 154.011719 39.640625 154.660156 C 39.640625 154.660156 27.625 159.878906 24.011719 163.25 C 28.035156 158.714844 38.796875 153.933594 38.796875 153.933594 C 38.773438 153.476562 39.894531 152.878906 39.894531 152.878906 C 39.054688 152.417969 39.054688 151.578125 39.054688 151.578125 C 38.902344 148.757812 41.34375 147.378906 41.417969 147.339844 C 40.199219 149.25 40.273438 150.546875 40.273438 150.546875 C 45.238281 143.671875 56.535156 137.917969 56.535156 137.917969 C 60.609375 136.1875 65.597656 141.175781 65.597656 141.175781 Z M 65.597656 141.175781 " fill-opacity="1" fill-rule="nonzero"/><path fill="#f4424f" d="M 28.136719 158.035156 C 24.148438 161.378906 24.015625 163.25 24.015625 163.25 C 24.015625 163.25 23.589844 163.25 23.375 162.011719 C 23.375 162.011719 20.621094 163.488281 16.304688 167.382812 C 16.304688 167.382812 14.179688 165.96875 12.042969 166.273438 C 12.042969 166.273438 10.421875 166.582031 9.40625 168.730469 C 10.324219 166.132812 11.597656 165.75 11.597656 165.75 C 13.324219 165.214844 15.921875 165.75 15.921875 165.75 C 21.453125 161.277344 28.035156 158.085938 28.136719 158.035156 Z M 28.136719 158.035156 " fill-opacity="1" fill-rule="nonzero"/><path fill="#c51c23" d="M 108.605469 200.207031 C 104.101562 185.046875 98.527344 182.710938 98.527344 182.710938 C 102.320312 183.882812 103.542969 184.621094 103.542969 184.621094 C 98.121094 145.046875 78.605469 136.589844 78.277344 136.421875 C 106.941406 146.742188 108.605469 200.207031 108.605469 200.207031 Z M 108.605469 200.207031 " fill-opacity="1" fill-rule="nonzero"/><path fill="#f4424f" d="M 29.175781 179.457031 C 28.808594 178.941406 28.546875 178.609375 28.546875 178.609375 C 27.273438 177.238281 25.949219 177.183594 25.949219 177.183594 C 15.210938 176.28125 8.875 180.671875 8.699219 180.800781 C 15.621094 175.351562 25.59375 176.054688 25.59375 176.054688 C 28.875 176.546875 29.175781 179.457031 29.175781 179.457031 Z M 29.175781 179.457031 " fill-opacity="1" fill-rule="nonzero"/><path fill="#f4424f" d="M 62.796875 150.777344 L 62.792969 150.777344 C 62.632812 150.652344 57.472656 146.757812 53.867188 146.117188 C 53.867188 146.117188 52.988281 146.042969 52.226562 147.761719 C 52.226562 147.761719 47.757812 152.867188 45.035156 152.382812 C 44.574219 152.300781 43.238281 151.816406 43.238281 151.816406 C 43.238281 151.816406 42.949219 151.660156 42.597656 151.5 C 44.328125 151.925781 45.785156 151.644531 45.785156 151.644531 C 48.535156 151.03125 51.511719 147.023438 51.511719 147.023438 C 52.375 144.679688 54.136719 145.074219 54.136719 145.074219 C 59.242188 146.296875 62.796875 150.777344 62.796875 150.777344 Z M 62.796875 150.777344 " fill-opacity="1" fill-rule="nonzero"/><path fill="#f4424f" d="M 43.25 248.253906 C 37.628906 240.394531 41.34375 225.390625 41.34375 225.390625 C 31.75 230.644531 29.578125 239.644531 29.511719 239.925781 C 30.890625 229.539062 44.167969 222.359375 44.167969 222.359375 C 37.984375 237.003906 43.125 247.992188 43.25 248.253906 Z M 43.25 248.253906 " fill-opacity="1" fill-rule="nonzero"/><path fill="#f4424f" d="M 75.414062 130.648438 C 75.414062 130.648438 73.105469 127.910156 70.613281 113.804688 C 70.613281 113.804688 66.4375 124.820312 63.765625 127.707031 C 68.167969 118.082031 70.585938 109.714844 70.585938 109.714844 C 72.238281 115.785156 73.105469 119.878906 73.550781 122.5625 C 73.953125 124.953125 74.464844 127.324219 75.171875 129.640625 C 75.277344 129.992188 75.355469 130.328125 75.414062 130.648438 Z M 75.414062 130.648438 " fill-opacity="1" fill-rule="nonzero"/><path fill="#c51c23" d="M 73.105469 131.527344 C 73.105469 131.527344 72.992188 141.800781 66.515625 147.136719 C 66.515625 147.136719 68.828125 135.042969 66.234375 129.082031 C 66.234375 129.082031 69.898438 134.660156 68.296875 143.214844 C 68.296875 143.214844 71.425781 138.019531 73.105469 131.527344 Z M 73.105469 131.527344 " fill-opacity="1" fill-rule="nonzero"/><path fill="#c51c23" d="M 10.886719 176.066406 C 10.316406 176.699219 9.292969 176.644531 8.804688 175.949219 C 8.597656 175.648438 8.390625 175.292969 8.238281 174.894531 C 8.59375 175.273438 8.753906 175.335938 9.042969 175.464844 C 9.535156 175.683594 10.105469 175.539062 10.445312 175.125 C 11.46875 173.875 11.851562 172.0625 11.851562 172.0625 C 11.992188 170.304688 10.121094 171.886719 10.121094 171.886719 C 10.15625 171.839844 10.730469 171.117188 11.472656 170.765625 C 12.054688 170.488281 12.75 170.867188 12.824219 171.511719 C 12.933594 172.4375 12.722656 174.035156 10.886719 176.066406 Z M 10.886719 176.066406 " fill-opacity="1" fill-rule="nonzero"/></svg>